<?xml version="1.0" encoding="UTF-8" standalone="no" ?>
<!DOCTYPE svg PUBLIC "-//W3C//DTD SVG 1.1//EN" "http://www.w3.org/Graphics/SVG/1.1/DTD/svg11.dtd">
<svg xmlns="http://www.w3.org/2000/svg" xmlns:xlink="http://www.w3.org/1999/xlink" version="1.1" width="640" height="640" viewBox="0 0 640 640" xml:space="preserve">
<desc>Created with Fabric.js 5.3.0</desc>
<defs>
</defs>
<g transform="matrix(0.6843877272 0.0119460322 -0.0119460322 0.6843877272 268.6631016043 230.6737967914)" id="2147cD_wfxO74in-Qpn0Y"  >
<g style=""   >
		<g transform="matrix(1 0 0 1 0 0)" id="UX6Ac8Yp6sq7bSp_ClpWE"  >
<path style="stroke: none; stroke-width: 1; stroke-dasharray: none; stroke-linecap: butt; stroke-dashoffset: 0; stroke-linejoin: miter; stroke-miterlimit: 4; fill: rgb(179,181,179); fill-rule: nonzero; opacity: 1;"  transform=" translate(-39.9194967155, -39.95)" d="M 72.4 0 L 7.6 0 C 6.9 0 6.3 0.6 6.3 1.2 L 6.3 78.7 C 6.3 79.4 6.8999999999999995 79.9 7.5 79.9 L 72.3 79.9 C 73 79.9 73.5 79.30000000000001 73.5 78.7 L 73.5 1.2 C 73.7 0.6 73.1 0 72.4 0 z" stroke-linecap="round" />
</g>
		<g transform="matrix(1 0 0 1 0.0805032845 -3.25)" id="FmSXZ-hvkw6klHe6XQbHx"  >
<path style="stroke: none; stroke-width: 1; stroke-dasharray: none; stroke-linecap: butt; stroke-dashoffset: 0; stroke-linejoin: miter; stroke-miterlimit: 4; fill: rgb(255,255,255); fill-rule: nonzero; opacity: 1;"  transform=" translate(-40, -36.7)" d="M 67.3 62.7 L 67.3 62.7 C 67.3 63.400000000000006 66.7 63.900000000000006 66.1 63.900000000000006 L 62.89999999999999 63.900000000000006 L 61.79999999999999 58.400000000000006 C 61.49999999999999 56.7 60.29999999999999 55.300000000000004 58.79999999999999 54.60000000000001 L 50.499999999999986 50.80000000000001 C 50.499999999999986 50.80000000000001 46.29999999999998 49.000000000000014 46.29999999999998 47.10000000000001 C 46.29999999999998 45.2 46.29999999999998 42.80000000000001 46.29999999999998 42.80000000000001 C 47.499999999999986 41.10000000000001 48.19999999999998 39.40000000000001 48.399999999999984 38.90000000000001 C 48.899999999999984 38.600000000000016 50.59999999999999 37.20000000000001 50.69999999999998 35.000000000000014 C 50.79999999999998 33.000000000000014 50.09999999999998 32.500000000000014 49.49999999999998 32.500000000000014 C 49.59999999999998 31.100000000000016 50.19999999999998 21.000000000000014 39.99999999999998 20.800000000000015 C 29.79999999999998 21.000000000000014 30.399999999999977 31.100000000000016 30.49999999999998 32.500000000000014 C 29.899999999999977 32.500000000000014 29.199999999999978 33.000000000000014 29.29999999999998 35.000000000000014 C 29.39999999999998 37.30000000000001 31.09999999999998 38.600000000000016 31.59999999999998 38.90000000000001 C 31.79999999999998 39.40000000000001 32.59999999999998 41.100000000000016 33.69999999999998 42.80000000000001 C 33.69999999999998 42.80000000000001 33.69999999999998 45.20000000000001 33.69999999999998 47.10000000000001 C 33.69999999999998 49.00000000000001 29.499999999999982 50.80000000000001 29.499999999999982 50.80000000000001 L 21 54.6 C 19.4 55.300000000000004 18.3 56.7 18 58.4 L 16.9 64 L 13.899999999999999 64 C 13.2 64 12.7 63.4 12.7 62.8 L 12.7 10.6 C 12.7 9.9 13.299999999999999 9.4 13.899999999999999 9.4 L 66 9.4 C 66.7 9.4 67.2 10 67.2 10.6 L 67.2 62.7 L 67.3 62.7 z" stroke-linecap="round" />
</g>
</g>
</g>
</svg>