<?xml version="1.0" standalone="no"?>
<!DOCTYPE svg PUBLIC "-//W3C//DTD SVG 20010904//EN"
 "http://www.w3.org/TR/2001/REC-SVG-20010904/DTD/svg10.dtd">
<svg version="1.0" xmlns="http://www.w3.org/2000/svg"
 width="1919.000000pt" height="960.000000pt" viewBox="0 0 1919.000000 960.000000"
 preserveAspectRatio="xMidYMid meet">

<g transform="translate(0.000000,960.000000) scale(0.100000,-0.100000)"
fill="#000000" stroke="none">
<path d="M0 4800 l0 -4800 3637 2 c3095 3 3637 5 3641 17 3 10 -2 12 -21 7
-26 -6 -57 14 -57 37 1 50 27 75 61 57 13 -7 19 -7 19 0 0 5 5 10 11 10 7 0
10 -23 7 -65 l-3 -65 5948 0 5947 0 0 4800 0 4800 -9595 0 -9595 0 0 -4800z
m19145 4750 c18 -20 17 -20 -20 -20 -37 0 -38 0 -20 20 10 11 19 20 20 20 1 0
10 -9 20 -20z m-661 -86 c9 -8 16 -19 16 -24 0 -11 -29 -40 -40 -40 -11 0 -40
29 -40 40 0 11 29 40 40 40 5 0 16 -7 24 -16z m-17610 -17 c54 -30 78 -67 83
-124 3 -35 -1 -58 -15 -83 -17 -31 -73 -80 -92 -80 -5 0 -10 18 -12 39 -3 35
0 41 19 46 34 8 46 40 39 99 l-7 51 -89 0 -89 0 -7 -51 c-7 -60 6 -91 41 -100
14 -3 22 -10 19 -15 -8 -14 -36 -10 -56 8 -10 9 -18 12 -18 6 0 -15 39 -53 55
-53 8 0 15 -7 15 -15 0 -19 -4 -19 -40 0 -48 25 -74 72 -75 135 0 68 29 114
89 141 54 25 93 24 140 -4z m17919 9 c103 -43 128 -177 48 -257 -112 -113
-296 -12 -267 146 18 94 128 150 219 111z m-1280 -82 c-17 -7 -36 -22 -42 -31
-6 -10 -11 -13 -11 -7 0 19 47 52 75 52 6 0 -4 -6 -22 -14z m-4374 -9 c-44
-24 -47 -64 -9 -85 25 -13 48 -3 65 29 l15 26 -6 -28 c-4 -16 -1 -34 7 -45 13
-15 12 -16 -3 -3 -11 8 -28 11 -43 7 -19 -5 -32 0 -50 18 -14 14 -25 30 -25
36 0 15 46 60 62 60 7 -1 1 -7 -13 -15z m4446 -5 c26 -28 15 -31 -12 -3 -12
13 -19 23 -14 23 4 0 16 -9 26 -20z m325 0 c0 -5 -4 -12 -10 -15 -13 -8 -13
-58 0 -71 11 -11 -4 -39 -17 -31 -7 4 -10 121 -4 134 3 6 31 -10 31 -17z m56
0 c10 0 14 -12 14 -38 0 -21 4 -42 10 -48 12 -12 -4 -39 -18 -30 -7 4 -9 26
-5 58 5 45 4 51 -10 45 -19 -7 -31 8 -21 25 6 9 9 9 12 0 2 -7 10 -12 18 -12z
m427 -24 c10 -21 17 -50 15 -65 -3 -25 -5 -26 -78 -27 l-75 -1 73 4 c69 4 72
5 72 28 0 18 -5 25 -20 25 -11 0 -20 -4 -20 -10 0 -5 -11 -10 -24 -10 -14 0
-28 5 -31 10 -12 19 -43 11 -48 -12 -4 -22 -4 -21 -5 2 -1 14 5 36 14 50 11
19 14 20 10 5 -5 -15 1 -23 25 -34 30 -13 34 -13 87 15 1 1 -2 14 -8 29 -9 25
-14 27 -54 23 -24 -1 -42 1 -39 5 3 4 24 7 46 5 38 -3 44 -7 60 -42z m-18040
27 c-18 -2 -48 -2 -65 0 -18 2 -4 4 32 4 36 0 50 -2 33 -4z m948 -15 c1 -13 0
-33 0 -45 -3 -27 13 -37 29 -18 10 13 9 19 -6 36 -19 21 -19 21 1 18 15 -3 20
-12 20 -39 0 -32 -2 -35 -32 -37 l-33 -1 0 54 c0 30 5 54 10 54 6 0 10 -10 11
-22z m11893 6 c5 -14 4 -15 -9 -4 -17 14 -19 20 -6 20 5 0 12 -7 15 -16z
m3121 -74 c-16 -16 -31 -28 -33 -25 -3 3 5 16 18 30 l23 25 -21 23 c-35 37
-26 45 10 10 l32 -33 -29 -30z m633 39 l27 -2 -27 -4 c-22 -3 -28 -10 -29 -31
l-2 -27 -4 28 c-3 21 -10 27 -31 28 l-27 2 28 4 c19 3 27 10 28 26 2 22 2 22
6 0 3 -17 12 -23 31 -24z m-15781 6 c-9 -6 -17 -24 -17 -39 0 -14 -4 -26 -10
-26 -5 0 -10 17 -10 38 0 33 3 37 27 39 25 1 26 0 10 -12z m45 -17 c2 -18 8
-33 13 -33 6 0 11 15 13 33 4 45 22 40 22 -6 0 -34 -3 -38 -27 -40 -31 -2 -43
11 -43 51 0 38 18 34 22 -5z m216 9 c2 -12 -3 -17 -18 -17 -13 0 -20 -5 -17
-12 2 -7 12 -12 21 -12 9 1 16 -2 16 -7 0 -10 -21 -12 -44 -3 -19 7 -22 60 -3
67 21 10 42 2 45 -16z m90 -19 c2 -21 -1 -38 -7 -38 -5 0 -11 15 -13 33 -2 17
-7 32 -13 32 -5 0 -11 -15 -13 -32 -4 -46 -22 -41 -22 5 0 36 1 38 33 37 30 0
32 -3 35 -37z m90 0 c2 -21 -1 -38 -7 -38 -5 0 -11 15 -13 33 -2 17 -7 32 -13
32 -5 0 -11 -15 -13 -32 -4 -46 -22 -41 -22 5 0 36 1 38 33 37 30 0 32 -3 35
-37z m129 -3 c1 -38 1 -38 -5 -7 -9 43 -26 46 -30 5 -2 -18 -7 -33 -12 -33 -5
0 -10 15 -12 33 -2 17 -7 32 -13 32 -5 0 -11 -15 -13 -32 -4 -46 -22 -41 -22
5 l0 38 53 -1 52 0 2 -40z m93 -6 c0 -34 -5 -49 -16 -53 -23 -9 -44 -7 -44 3
0 5 9 7 20 4 27 -7 25 10 -2 22 -44 19 -30 77 18 73 22 -2 24 -7 24 -49z
m-1477 24 c-18 -2 -48 -2 -65 0 -18 2 -4 4 32 4 36 0 50 -2 33 -4z m16784 -10
c-16 -16 -18 -16 -34 0 -16 16 -15 17 17 17 32 0 33 -1 17 -17z m403 7 c0 -5
-4 -10 -10 -10 -5 0 -10 5 -10 10 0 6 5 10 10 10 6 0 10 -4 10 -10z m64 -12
c-8 -28 -33 -58 -48 -58 -6 0 -1 7 11 15 11 8 24 26 27 40 4 14 9 25 12 25 3
0 2 -10 -2 -22z m-91 -53 c24 -11 25 -13 7 -9 -29 7 -60 32 -60 48 0 6 5 3 11
-7 6 -9 25 -24 42 -32z m-17160 18 c-18 -2 -48 -2 -65 0 -18 2 -4 4 32 4 36 0
50 -2 33 -4z m16040 0 c-7 -2 -21 -2 -30 0 -10 3 -4 5 12 5 17 0 24 -2 18 -5z
m-14923 -423 c0 -60 -2 -70 -17 -69 -11 0 -13 3 -5 6 6 2 12 11 12 19 0 12
-11 14 -47 12 -34 -2 -47 -7 -45 -16 1 -8 -2 -11 -8 -7 -14 9 -13 98 2 113 7
7 34 12 60 12 l48 0 0 -70z m1705 -10 l0 -75 -75 -1 c-41 -1 -65 0 -52 3 19 4
22 11 22 49 0 37 -3 44 -19 44 -16 0 -21 -8 -24 -42 -3 -32 -4 -26 -5 23 -1
36 1 69 5 73 4 4 39 5 78 4 l70 -3 0 -75z m-2865 60 c13 -7 21 -7 25 0 3 5 19
10 36 10 29 0 29 0 29 -59 l0 -59 -42 -4 c-24 -2 -59 -1 -78 2 -35 5 -35 6
-38 63 -3 56 -2 57 23 57 15 0 35 -5 45 -10z m3823 -1 c30 -16 37 -28 37 -67
0 -27 -5 -35 -35 -49 -33 -16 -37 -16 -70 0 -31 15 -35 21 -35 57 0 33 5 42
28 54 33 19 47 19 75 5z m1082 -9 c4 -13 15 -20 31 -20 27 0 31 -12 9 -30 -8
-7 -15 -23 -15 -37 0 -21 -3 -22 -20 -13 -14 7 -26 8 -39 0 -27 -14 -29 -13
-24 13 3 14 -2 29 -11 36 -23 19 -20 31 8 31 16 0 27 7 31 20 3 11 10 20 15
20 5 0 12 -9 15 -20z m-2955 0 c0 -5 -4 -10 -10 -10 -5 0 -10 5 -10 10 0 6 5
10 10 10 6 0 10 -4 10 -10z m2283 -33 l22 18 -22 -25 c-11 -14 -23 -34 -26
-45 -3 -11 -4 7 -4 40 0 33 2 45 4 27 4 -34 5 -34 26 -15z m-3979 17 c29 -29
11 -84 -27 -84 -30 0 -47 18 -47 50 0 47 42 66 74 34z m1076 6 c12 -7 13 -13
3 -28 -9 -16 -9 -24 3 -41 8 -11 11 -21 5 -21 -6 0 -15 9 -21 20 -6 11 -15 20
-20 20 -6 0 -10 -9 -10 -20 0 -11 -4 -20 -10 -20 -5 0 -10 23 -10 50 0 45 2
50 23 50 12 0 29 -5 37 -10z m968 -37 c-1 -44 -2 -45 -5 -10 -3 25 -8 35 -16
30 -7 -4 -6 0 2 10 20 25 21 22 19 -30z m88 20 c8 -31 -5 -56 -32 -62 -16 -3
-15 0 6 17 25 21 25 21 3 22 -26 0 -35 12 -27 34 10 26 43 19 50 -11z m629 -3
c0 -18 -6 -26 -22 -28 -13 -2 -23 -12 -26 -25 -2 -12 -5 2 -6 31 -1 53 -1 53
27 50 21 -2 27 -8 27 -28z m374 2 c-14 -5 -11 -60 4 -65 7 -4 6 -6 -4 -6 -12
-1 -18 10 -21 38 -5 51 0 64 17 48 7 -7 9 -13 4 -15z m631 13 c10 -12 10 -18
0 -30 -7 -8 -19 -15 -26 -15 -8 0 -14 -9 -14 -20 0 -11 -4 -20 -10 -20 -5 0
-10 23 -10 50 0 46 2 50 24 50 13 0 29 -7 36 -15z m1073 8 c-21 -4 -34 -33
-15 -33 5 0 17 -6 27 -14 16 -12 17 -16 6 -30 -7 -9 -23 -16 -35 -15 -14 0
-16 2 -6 6 8 2 22 7 30 10 11 3 8 10 -14 28 -33 27 -30 56 6 54 l23 -2 -22 -4z
m66 -21 c-12 -5 -11 -59 1 -65 6 -3 5 -4 -2 -3 -13 3 -27 61 -20 83 3 9 7 9
17 0 7 -7 9 -13 4 -15z m-3403 -4 c-21 -12 -20 -44 2 -58 16 -10 15 -10 -3 -8
-14 2 -21 14 -26 41 -7 43 -5 47 23 39 18 -4 18 -6 4 -14z m-1454 -20 l12 -33
13 33 c17 43 25 41 10 -3 -7 -19 -16 -34 -22 -34 -5 0 -15 15 -22 34 -7 19
-10 35 -7 35 3 0 10 -15 16 -32z m116 9 c3 -12 -3 -17 -22 -17 -32 0 -34 -17
-3 -30 13 -5 16 -9 6 -9 -19 -1 -39 18 -39 39 0 38 51 53 58 17z m32 -27 l-8
-35 -1 45 c-1 27 3 40 8 35 6 -6 6 -25 1 -45z m83 18 c5 17 14 32 19 32 7 0
-16 -67 -27 -79 -5 -4 -36 63 -34 76 0 4 8 -8 16 -27 l16 -35 10 33z m44 -30
c-2 -13 -4 -3 -4 22 0 25 2 35 4 23 2 -13 2 -33 0 -45z m83 42 c9 -18 8 -20
-15 -20 -31 0 -34 -27 -2 -33 l22 -4 -22 -2 c-29 -1 -48 31 -33 59 6 11 17 20
25 20 8 0 19 -9 25 -20z m30 -11 c0 -28 17 -23 24 6 7 29 26 24 26 -6 0 -10 5
-19 10 -19 6 0 10 9 10 19 0 11 4 22 9 25 5 3 4 -12 -1 -34 -13 -48 -24 -51
-34 -7 l-7 32 -10 -32 c-13 -44 -22 -41 -35 7 -5 22 -6 37 -1 34 5 -3 9 -14 9
-25z m728 8 c2 -12 -3 -17 -18 -17 -13 0 -20 -5 -17 -12 2 -7 12 -12 21 -12 9
1 16 -2 16 -7 0 -10 -21 -12 -44 -3 -19 7 -22 60 -3 67 21 10 42 2 45 -16z
m87 -17 c0 -27 -5 -36 -20 -39 -20 -3 -20 -3 -1 18 15 17 16 23 6 36 -16 19
-32 9 -29 -18 3 -42 -1 -67 -11 -67 -5 0 -10 24 -10 54 l0 54 33 -1 c30 -2 32
-5 32 -37z m85 25 c26 -31 -13 -82 -44 -56 -19 16 -21 57 -3 64 22 9 34 7 47
-8z m70 5 c0 -5 -7 -7 -15 -4 -22 9 -18 -5 7 -25 12 -10 18 -23 14 -29 -9 -14
-42 -16 -50 -3 -4 5 3 7 14 4 27 -7 26 11 -2 29 -12 8 -18 19 -14 26 9 14 46
16 46 2z m37 -52 c-2 -13 -4 -3 -4 22 0 25 2 35 4 23 2 -13 2 -33 0 -45z m141
50 c17 -17 15 -43 -4 -59 -31 -26 -70 25 -44 56 15 18 32 19 48 3z m72 0 c0
-4 -4 -8 -10 -8 -5 0 -10 -13 -10 -30 0 -16 -4 -30 -10 -30 -5 0 -10 17 -10
38 0 31 4 38 20 38 11 0 20 -4 20 -8z m40 -28 c0 -22 -4 -40 -10 -40 -5 0 -10
18 -10 40 0 22 5 40 10 40 6 0 10 -18 10 -40z m78 17 c2 -12 -3 -17 -18 -17
-13 0 -20 -5 -17 -12 2 -7 12 -12 21 -12 9 1 16 -2 16 -7 0 -10 -21 -12 -44
-3 -19 7 -22 60 -3 67 21 10 42 2 45 -16z m72 13 c0 -5 -7 -7 -15 -4 -20 8
-19 -13 2 -24 21 -12 10 -42 -17 -42 -11 0 -20 4 -20 10 0 5 7 7 15 4 20 -8
19 13 -2 24 -21 12 -10 42 17 42 11 0 20 -4 20 -10z m978 -2 c-9 -7 -19 -26
-21 -43 -4 -27 -4 -27 -6 7 -1 34 7 45 33 47 6 1 2 -5 -6 -11z m77 -28 c0 -31
-3 -35 -25 -35 -19 0 -26 6 -28 23 -5 36 5 54 30 50 19 -2 23 -9 23 -38z m35
-20 c0 -51 -3 -60 -17 -59 -11 0 -13 3 -5 6 7 3 12 25 12 59 0 30 2 54 5 54 3
0 5 -27 5 -60z m78 48 c19 -19 14 -28 -13 -28 -31 0 -33 -17 -2 -30 22 -10 22
-10 -3 -7 -18 1 -26 9 -28 25 -7 46 18 68 46 40z m60 5 c-19 -5 -30 -27 -22
-47 3 -8 13 -17 22 -19 15 -4 15 -5 0 -6 -25 -2 -42 34 -28 59 6 11 18 19 28
19 15 -1 15 -2 0 -6z m120 0 c-23 -6 -23 -19 -1 -31 20 -12 10 -42 -14 -41
-17 1 -17 2 0 6 23 6 22 18 -5 35 -25 17 -17 39 15 37 17 -1 18 -2 5 -6z m650
-34 c3 -34 1 -36 -25 -35 -34 1 -38 27 -5 41 26 12 28 22 5 29 -14 4 -14 4 2
3 15 -2 21 -11 23 -38z m60 34 c-19 -5 -30 -27 -22 -47 3 -8 13 -17 22 -19 15
-4 15 -5 0 -6 -10 0 -22 8 -28 19 -14 25 3 61 28 59 15 -1 15 -2 0 -6z m159
-33 c1 -19 -1 -27 -3 -17 -3 9 -12 17 -20 17 -17 0 -19 -26 -1 -33 7 -3 5 -6
-5 -6 -26 -1 -23 39 2 46 25 7 26 20 3 27 -14 4 -14 4 2 3 15 -2 20 -10 22
-37z m93 -10 c0 -50 -13 -71 -44 -69 -18 1 -17 2 4 8 14 4 26 14 28 23 2 12
-2 15 -17 11 -13 -3 -23 2 -30 16 -16 30 2 61 34 59 23 -2 25 -7 25 -48z m78
27 c3 -12 -3 -17 -22 -17 -32 0 -34 -17 -3 -30 13 -5 16 -9 7 -9 -20 -1 -40
18 -40 39 0 38 51 53 58 17z m50 16 c-23 -6 -23 -11 5 -33 16 -14 19 -21 11
-30 -7 -7 -20 -10 -30 -7 -16 4 -15 5 4 6 28 1 28 14 0 33 -24 16 -17 39 10
37 15 -1 15 -2 0 -6z m700 -34 c3 -34 1 -36 -25 -35 -34 1 -38 27 -5 41 26 12
28 22 5 29 -14 4 -14 4 2 3 15 -2 21 -11 23 -38z m60 29 c-9 -7 -19 -26 -21
-43 -4 -27 -4 -27 -6 7 -1 34 7 45 33 47 6 1 2 -5 -6 -11z m50 5 c-23 -6 -23
-11 5 -33 16 -14 19 -21 11 -30 -7 -7 -20 -10 -30 -7 -16 4 -15 5 4 6 28 1 28
14 0 33 -24 16 -17 39 10 37 15 -1 15 -2 0 -6z m-1107 -55 c11 -21 11 -22 -4
-9 -10 7 -17 17 -17 22 0 15 9 10 21 -13z m-3131 -23 c0 -8 -9 -15 -20 -15
-11 0 -20 7 -20 15 0 8 9 15 20 15 11 0 20 -7 20 -15z m1430 -175 c0 -7 -272
-10 -795 -10 -523 0 -795 3 -795 10 0 7 272 10 795 10 523 0 795 -3 795 -10z
m12230 -410 c0 -63 -2 -70 -20 -70 -22 0 -27 15 -7 23 6 3 -7 6 -30 6 -33 1
-43 -3 -43 -15 0 -8 -4 -12 -10 -9 -11 7 -14 118 -3 128 3 4 30 7 60 7 l53 0
0 -70z m-3062 43 c-14 -3 -18 -15 -18 -49 0 -24 -4 -44 -10 -44 -5 0 -10 20
-10 44 0 34 -4 46 -17 49 -10 3 2 5 27 5 25 0 37 -2 28 -5z m842 -84 c23 -6
22 -7 -7 -8 l-33 -1 2 53 1 52 6 -45 c5 -36 10 -45 31 -51z m1210 81 c0 -5 -6
-7 -14 -4 -8 3 -17 0 -22 -7 -4 -7 -3 -14 3 -16 6 -2 19 -10 29 -17 15 -12 16
-16 5 -30 -15 -17 -51 -22 -51 -6 0 5 6 7 14 4 25 -9 28 16 5 35 -14 11 -20
24 -16 34 7 18 47 24 47 7z m199 -18 c-14 -5 -11 -60 4 -66 6 -3 3 -5 -8 -3
-15 2 -21 11 -23 35 -5 45 -36 41 -40 -6 -5 -46 -22 -40 -22 8 0 27 4 38 13
35 6 -3 23 1 37 8 17 9 28 10 37 2 6 -5 7 -11 2 -13z m921 -4 l20 -33 0 33 c0
17 5 32 10 32 6 0 10 -22 10 -50 0 -57 -9 -62 -39 -22 l-20 27 -1 -27 c0 -18
-5 -28 -15 -28 -11 0 -15 12 -15 50 0 60 20 67 50 18z m-3135 -15 l8 -28 10
28 c10 24 28 38 27 20 -2 -20 -47 -98 -60 -102 -11 -3 -11 0 3 13 15 16 15 20
2 53 -18 42 -18 43 -6 43 5 0 12 -12 16 -27z m120 -13 c0 -30 -3 -35 -22 -34
-16 0 -23 -5 -23 -18 0 -10 -4 -18 -10 -18 -5 0 -10 24 -10 54 l0 54 33 -1
c30 -2 32 -5 32 -37z m83 18 c3 -13 -3 -18 -22 -18 -19 0 -24 -4 -19 -16 3 -9
13 -14 24 -11 11 3 19 1 19 -4 0 -10 -21 -12 -44 -3 -16 6 -22 54 -9 68 13 13
48 1 51 -16z m690 -19 c3 -34 1 -36 -25 -35 -35 1 -46 35 -14 43 26 7 27 20 4
27 -11 3 -7 4 7 3 21 -2 25 -8 28 -38z m84 29 c11 -18 10 -68 -2 -68 -5 0 -10
16 -10 36 0 45 -24 42 -28 -4 -5 -45 -22 -40 -22 6 0 34 3 38 27 40 15 1 30
-4 35 -10z m86 -43 c-3 -45 -5 -50 -28 -52 -25 -3 -25 -3 -2 7 12 5 22 13 22
18 0 5 -10 8 -22 8 -17 -1 -24 5 -26 22 -5 37 5 52 33 50 25 -2 26 -5 23 -53z
m59 -12 c7 -3 15 8 19 24 10 48 12 49 13 7 1 -39 -1 -41 -26 -40 -25 1 -28 5
-30 41 -1 40 -1 40 5 6 4 -19 12 -36 19 -38z m111 26 c3 -34 1 -36 -25 -35
-37 1 -39 37 -3 47 l25 6 -25 12 -25 11 25 -3 c21 -2 25 -8 28 -38z m90 -14
c-3 -46 -5 -50 -30 -53 -16 -2 -28 1 -28 6 0 6 9 8 20 5 27 -7 25 10 -2 22
-44 19 -30 77 19 73 22 -2 24 -6 21 -53z m80 33 c3 -13 -3 -18 -22 -18 -19 0
-24 -4 -19 -16 3 -9 13 -14 24 -11 11 3 19 1 19 -4 0 -10 -21 -12 -44 -3 -16
6 -22 54 -9 68 13 13 48 1 51 -16z m697 -18 c0 -38 -24 -52 -50 -30 -31 25 -9
73 30 68 16 -2 20 -11 20 -38z m1193 17 c5 -20 5 -20 13 1 11 28 23 28 37 0
l11 -23 0 23 c1 12 7 22 15 22 11 0 12 -8 4 -40 -11 -44 -32 -52 -43 -17 l-8
22 -4 -22 c-6 -34 -31 -28 -42 10 -5 17 -10 26 -10 20 -1 -7 -12 -13 -26 -13
-14 0 -25 -4 -25 -10 0 -5 11 -10 25 -10 14 0 25 -4 25 -10 0 -5 -13 -10 -29
-10 -33 0 -47 25 -36 60 9 29 85 26 93 -3z m-2941 -14 c-16 -16 -18 -16 -34 0
-16 16 -15 17 17 17 32 0 33 -1 17 -17z m1200 0 c-16 -16 -18 -16 -34 0 -16
16 -15 17 17 17 32 0 33 -1 17 -17z m810 0 c-16 -16 -18 -16 -34 0 -16 16 -15
17 17 17 32 0 33 -1 17 -17z m-9196 -32 c300 -64 528 -188 745 -405 218 -218
339 -442 406 -750 32 -146 32 -426 0 -572 -31 -142 -65 -241 -129 -372 -54
-111 -56 -114 -106 -136 -29 -13 -62 -34 -74 -47 -28 -31 -53 -90 -53 -127 0
-23 -16 -45 -82 -108 -188 -180 -431 -305 -712 -366 -84 -18 -133 -22 -286
-22 -153 0 -202 4 -286 22 -308 67 -532 188 -750 406 -218 218 -339 442 -406
750 -32 146 -32 426 0 572 64 296 186 527 390 736 232 239 502 378 839 433
123 20 376 13 504 -14z m9809 -29 c0 -11 -7 -18 -20 -18 -13 0 -20 7 -20 18 0
11 7 18 20 18 13 0 20 -7 20 -18z m-8130 -602 c0 -27 2 -29 19 -18 27 17 51
-5 51 -48 0 -38 -11 -47 -57 -49 l-33 -1 0 73 c0 42 4 73 10 73 6 0 10 -14 10
-30z m1474 -9 c4 -5 -3 -7 -14 -4 -14 4 -20 0 -20 -12 0 -12 6 -16 20 -12 11
3 18 1 14 -4 -3 -5 -11 -9 -19 -9 -7 0 -16 -10 -18 -22 -2 -13 -5 -2 -6 25 -1
40 2 47 18 47 11 0 22 -4 25 -9z m-1694 -11 c0 -7 6 -7 19 0 33 17 35 11 7
-15 -17 -16 -26 -34 -26 -55 0 -16 -4 -30 -10 -30 -5 0 -10 25 -10 55 0 30 5
55 10 55 6 0 10 -5 10 -10z m90 -36 c0 -41 2 -45 23 -42 18 2 23 10 25 46 4
60 22 52 22 -10 l0 -53 -33 0 c-17 0 -38 4 -44 8 -15 10 -18 97 -3 97 6 0 10
-21 10 -46z m301 36 c10 -6 19 -20 19 -30 0 -16 -7 -20 -36 -20 -46 0 -41 -23
7 -30 31 -5 32 -6 11 -14 -52 -18 -95 50 -56 88 18 19 28 20 55 6z m69 -1 c0
-8 4 -8 15 1 8 6 23 9 35 5 17 -5 20 -15 20 -56 0 -27 -4 -49 -10 -49 -5 0
-10 21 -10 46 0 41 -2 45 -22 42 -19 -2 -24 -10 -26 -45 -5 -62 -22 -53 -22
12 0 30 5 55 10 55 6 0 10 -5 10 -11z m150 4 c29 17 50 -7 50 -59 0 -56 -18
-57 -22 -1 -2 34 -7 42 -23 42 -16 0 -21 -8 -23 -42 -5 -64 -22 -52 -22 14 0
42 3 54 11 46 9 -9 16 -9 29 0z m131 0 c14 9 21 9 30 0 8 -8 18 -9 30 -3 34
19 49 2 48 -54 l-2 -51 -6 42 c-8 49 -14 58 -36 50 -10 -4 -15 -20 -15 -47 0
-53 -18 -52 -22 3 -2 34 -7 42 -23 42 -16 0 -21 -8 -23 -42 -5 -64 -22 -52
-22 14 0 42 3 54 11 46 9 -9 16 -9 30 0z m207 -5 c9 -9 12 -9 12 0 0 7 5 12
10 12 6 0 10 -28 10 -64 0 -84 -23 -110 -77 -89 -14 6 -10 9 17 13 23 3 36 11
38 23 3 15 0 18 -18 12 -29 -9 -50 11 -50 49 0 32 15 56 35 56 6 0 16 -5 23
-12z m187 3 c3 -5 -5 -11 -17 -13 -18 -2 -23 -9 -23 -33 0 -23 5 -31 25 -36
21 -5 22 -7 8 -13 -9 -4 -26 -3 -37 4 -27 14 -29 74 -3 89 22 13 39 14 47 2z
m106 -1 c29 -16 26 -77 -5 -91 -37 -17 -66 3 -66 46 0 46 31 66 71 45z m69 0
c0 -7 7 -7 20 0 13 7 26 7 37 1 11 -6 23 -5 34 2 28 17 49 -8 49 -59 0 -56
-18 -57 -22 -1 -2 34 -7 42 -23 42 -16 0 -21 -8 -23 -42 -4 -57 -22 -55 -22 2
0 37 -3 45 -19 45 -21 0 -31 -19 -31 -61 0 -16 -4 -29 -10 -29 -5 0 -10 25
-10 55 0 30 5 55 10 55 6 0 10 -5 10 -10z m607 -41 c1 -19 -1 -26 -3 -16 -3 9
-11 17 -17 17 -7 0 -6 4 3 10 13 9 13 11 0 21 -13 9 -13 10 0 6 9 -2 16 -17
17 -38z m47 33 c-7 -4 -14 -16 -17 -27 -4 -15 -5 -14 -6 8 -1 20 4 27 17 27
11 0 13 -3 6 -8z m60 0 c2 -4 -4 -8 -14 -8 -10 0 -16 4 -14 8 3 4 9 8 14 8 5
0 11 -4 14 -8z m6031 -22 c4 -13 15 -20 31 -20 27 0 31 -12 9 -30 -8 -7 -15
-23 -15 -37 0 -21 -3 -22 -20 -13 -14 7 -26 8 -39 0 -27 -14 -29 -13 -24 13 3
14 -2 29 -11 36 -23 19 -20 31 8 31 16 0 27 7 31 20 3 11 10 20 15 20 5 0 12
-9 15 -20z m-6032 -7 c-7 -2 -21 -2 -30 0 -10 3 -4 5 12 5 17 0 24 -2 18 -5z
m-128 -32 c-6 -5 -25 10 -25 20 0 5 6 4 14 -3 8 -7 12 -15 11 -17z m6375 18
l-25 -10 24 -18 c29 -22 22 -51 -11 -50 -23 0 -23 0 2 10 l25 10 -24 18 c-29
22 -22 51 11 50 23 0 23 0 -2 -10z m-6249 -17 c-7 -2 -18 1 -23 6 -8 8 -4 9
13 5 13 -4 18 -8 10 -11z m6311 0 c-16 -5 -15 -34 1 -51 10 -11 9 -13 -3 -9
-14 4 -32 62 -23 72 3 3 12 2 21 -2 10 -4 12 -7 4 -10z m68 -28 c0 -31 -3 -35
-22 -32 -29 4 -35 28 -9 35 26 7 27 20 4 26 -14 4 -12 5 5 6 19 1 22 -4 22
-35z m51 22 c-5 -6 -11 -22 -14 -36 -3 -19 -5 -17 -6 11 -1 25 3 36 14 36 9 0
11 -4 6 -11z m-7417 -17 c-3 -5 -10 -7 -15 -3 -5 3 -7 10 -3 15 3 5 10 7 15 3
5 -3 7 -10 3 -15z m7743 4 c-16 -16 -18 -16 -34 0 -16 16 -15 17 17 17 32 0
33 -1 17 -17z m-8785 -230 c-6 -65 -10 -70 -11 -15 0 28 3 52 7 52 4 0 6 -17
4 -37z m69 14 c-10 -9 -11 -8 -5 6 3 10 9 15 12 12 3 -3 0 -11 -7 -18z m209
-32 c0 -5 -5 -3 -10 5 -8 12 -10 12 -10 1 0 -8 -2 -12 -5 -9 -3 3 -2 13 1 22
5 14 9 15 15 4 5 -7 9 -17 9 -23z m185 25 c3 -6 -1 -7 -9 -4 -18 7 -21 14 -7
14 6 0 13 -4 16 -10z m129 -13 c12 -19 -1 -48 -25 -54 -8 -3 -7 0 4 7 9 6 17
20 17 30 0 10 -8 24 -17 30 -11 7 -12 10 -4 7 8 -2 19 -11 25 -20z m71 13 c3
-6 -1 -7 -9 -4 -18 7 -21 14 -7 14 6 0 13 -4 16 -10z m65 6 c0 -2 -7 -7 -16
-10 -8 -3 -12 -2 -9 4 6 10 25 14 25 6z m30 -43 c0 -25 -3 -44 -6 -40 -4 3 -6
21 -6 39 0 43 1 48 7 48 3 0 5 -21 5 -47z m60 43 c0 -2 -7 -7 -16 -10 -8 -3
-12 -2 -9 4 6 10 25 14 25 6z m20 -20 c0 -8 -13 -16 -30 -18 -16 -3 -30 -1
-30 4 0 4 11 8 25 8 14 0 25 5 25 10 0 6 2 10 5 10 3 0 5 -6 5 -14z m-450 -8
c0 -5 -11 -8 -25 -8 -31 0 -33 -18 -2 -30 13 -5 16 -9 7 -9 -20 -1 -40 18 -40
39 0 10 10 15 30 15 17 0 30 -3 30 -7z m277 -4 c-3 -3 -12 -4 -19 -1 -8 3 -5
6 6 6 11 1 17 -2 13 -5z m-625 -36 c-7 -7 -12 -8 -12 -2 0 14 12 26 19 19 2
-3 -1 -11 -7 -17z m208 8 c0 -3 -4 -8 -10 -11 -5 -3 -10 -1 -10 4 0 6 5 11 10
11 6 0 10 -2 10 -4z m50 -6 c0 -5 -2 -10 -4 -10 -3 0 -8 5 -11 10 -3 6 -1 10
4 10 6 0 11 -4 11 -10z m165 0 c-3 -5 -12 -10 -18 -10 -7 0 -6 4 3 10 19 12
23 12 15 0z m180 -8 c-3 -3 -11 0 -18 7 -9 10 -8 11 6 5 10 -3 15 -9 12 -12z
m80 0 c-3 -3 -11 0 -18 7 -9 10 -8 11 6 5 10 -3 15 -9 12 -12z m20 -32 c-3 -5
-14 -10 -23 -9 -14 0 -13 2 3 9 27 11 27 11 20 0z m-743 -239 c-9 -16 -18 -28
-21 -26 -4 5 27 55 34 55 2 0 -4 -13 -13 -29z m79 12 c13 -16 12 -17 -3 -4
-10 7 -18 15 -18 17 0 8 8 3 21 -13z m756 -50 c-2 -16 -4 -5 -4 22 0 28 2 40
4 28 2 -13 2 -35 0 -50z m250 0 c-2 -16 -4 -5 -4 22 0 28 2 40 4 28 2 -13 2
-35 0 -50z m-400 5 c-2 -13 -4 -5 -4 17 -1 22 1 32 4 23 2 -10 2 -28 0 -40z
m490 46 c-3 -3 -12 -4 -19 -1 -8 3 -5 6 6 6 11 1 17 -2 13 -5z m-233 -48 c1
-19 -2 -32 -6 -29 -5 2 -8 20 -8 40 0 46 13 36 14 -11z m-716 20 c-7 -8 -15
-12 -17 -11 -5 6 10 25 20 25 5 0 4 -6 -3 -14z m66 6 c-7 -4 -14 -16 -17 -27
-4 -15 -5 -14 -6 8 -1 20 4 27 17 27 11 0 13 -3 6 -8z m111 -2 c3 -6 -1 -7 -9
-4 -18 7 -21 14 -7 14 6 0 13 -4 16 -10z m415 6 c0 -2 -7 -7 -16 -10 -8 -3
-12 -2 -9 4 6 10 25 14 25 6z m250 0 c0 -2 -7 -7 -16 -10 -8 -3 -12 -2 -9 4 6
10 25 14 25 6z m280 0 c0 -2 -7 -7 -16 -10 -8 -3 -12 -2 -9 4 6 10 25 14 25 6z
m47 -43 c-3 -10 -5 -2 -5 17 0 19 2 27 5 18 2 -10 2 -26 0 -35z m249 6 c2 -31
1 -31 -3 -4 -3 16 -10 34 -16 38 -8 6 -7 7 3 4 9 -2 16 -17 16 -38z m-1546 22
c0 -5 -9 -19 -20 -32 l-20 -24 17 32 c19 34 23 39 23 24z m904 -8 c9 4 16 2
16 -3 0 -6 -9 -10 -19 -10 -11 0 -22 -6 -24 -12 -3 -7 -6 1 -6 17 -1 21 2 26
8 16 5 -8 16 -11 25 -8z m-237 -15 c-3 -8 -6 -5 -6 6 -1 11 2 17 5 13 3 -3 4
-12 1 -19z m980 0 c-3 -8 -6 -5 -6 6 -1 11 2 17 5 13 3 -3 4 -12 1 -19z
m-1564 5 c-7 -2 -21 -2 -30 0 -10 3 -4 5 12 5 17 0 24 -2 18 -5z m-172 -20
c13 -16 12 -17 -3 -4 -10 7 -18 15 -18 17 0 8 8 3 21 -13z m1603 1 c3 -8 2
-12 -4 -9 -6 3 -10 10 -10 16 0 14 7 11 14 -7z m-799 -12 c-3 -3 -11 0 -18 7
-9 10 -8 11 6 5 10 -3 15 -9 12 -12z m250 0 c-3 -3 -11 0 -18 7 -9 10 -8 11 6
5 10 -3 15 -9 12 -12z m650 -22 c-3 -5 -14 -10 -23 -9 -14 0 -13 2 3 9 27 11
27 11 20 0z m6350 -600 c4 -13 15 -20 31 -20 27 0 31 -12 9 -30 -8 -7 -15 -23
-15 -37 0 -21 -3 -22 -20 -13 -14 7 -26 8 -39 0 -27 -14 -29 -13 -24 13 3 14
-2 29 -11 36 -23 19 -20 31 8 31 16 0 27 7 31 20 3 11 10 20 15 20 5 0 12 -9
15 -20z m-7991 -16 c9 -8 16 -20 16 -25 0 -14 -39 -49 -55 -49 -9 0 -15 -9
-15 -25 0 -14 -4 -25 -10 -25 -6 0 -10 30 -10 70 l0 70 29 0 c16 0 37 -7 45
-16z m612 -14 c8 0 14 -4 14 -10 0 -5 -7 -10 -15 -10 -10 0 -15 -11 -15 -35 0
-24 5 -35 15 -35 8 0 15 -4 15 -10 0 -12 -20 -13 -36 -2 -16 10 -24 98 -10
112 7 7 12 7 14 0 2 -5 10 -10 18 -10z m7594 9 l-25 -10 24 -18 c29 -22 22
-51 -11 -50 -23 0 -23 0 2 10 l25 10 -24 18 c-29 22 -22 51 11 50 23 0 23 0
-2 -10z m-7133 -5 c-3 -3 -12 -4 -19 -1 -8 3 -5 6 6 6 11 1 17 -2 13 -5z
m7195 -12 c-16 -5 -15 -34 1 -51 10 -11 9 -13 -3 -9 -14 4 -32 62 -23 72 3 3
12 2 21 -2 10 -4 12 -7 4 -10z m-8187 -2 c8 13 25 13 25 1 0 -5 -9 -13 -20
-16 -16 -5 -20 -15 -20 -46 0 -21 -4 -39 -10 -39 -5 0 -10 25 -10 56 0 47 2
55 14 45 10 -8 16 -9 21 -1z m116 0 c29 -16 26 -77 -5 -91 -37 -17 -66 3 -66
46 0 46 31 66 71 45z m72 -32 c10 -28 17 -38 21 -28 3 8 10 27 15 43 6 15 15
27 20 27 11 0 -33 -126 -51 -147 -12 -15 -38 -17 -38 -3 0 6 6 10 14 10 22 0
27 26 12 62 -23 56 -28 78 -18 78 6 0 17 -19 25 -42z m148 32 c10 -6 19 -20
19 -30 0 -16 -7 -20 -35 -20 -26 0 -33 -3 -29 -15 4 -9 19 -15 38 -15 24 0 27
-3 16 -10 -8 -5 -21 -10 -27 -10 -18 0 -53 37 -53 55 0 14 34 55 46 55 3 0 14
-5 25 -10z m124 1 c3 -5 -7 -11 -22 -13 -24 -3 -28 -8 -28 -33 0 -25 4 -30 28
-33 30 -4 28 -22 -3 -22 -26 0 -50 27 -50 55 0 40 56 75 75 46z m185 -11 c11
-11 20 -27 20 -35 0 -19 -35 -55 -54 -55 -22 0 -46 29 -46 55 0 26 24 55 46
55 8 0 23 -9 34 -20z m105 10 c4 -6 -5 -10 -19 -10 -34 0 -33 -11 5 -33 35
-20 34 -38 -4 -51 -19 -7 -31 -6 -39 2 -9 9 -5 12 20 12 38 0 42 17 8 30 -34
13 -42 31 -21 47 22 15 41 17 50 3z m7505 -26 c0 -31 -3 -35 -22 -32 -29 4
-35 28 -9 35 26 7 27 20 4 26 -14 4 -12 5 5 6 19 1 22 -4 22 -35z m51 22 c-5
-6 -11 -22 -14 -36 -3 -19 -5 -17 -6 11 -1 25 3 36 14 36 9 0 11 -4 6 -11z
m-7084 -37 c1 -19 -1 -26 -3 -16 -3 9 -11 17 -17 17 -7 0 -6 4 3 10 13 9 13
11 0 21 -13 9 -13 10 0 6 9 -2 16 -17 17 -38z m47 33 c-7 -4 -14 -16 -17 -27
-4 -15 -5 -14 -6 8 -1 20 4 27 17 27 11 0 13 -3 6 -8z m56 4 c0 -2 -7 -7 -16
-10 -8 -3 -12 -2 -9 4 6 10 25 14 25 6z m7307 -13 c-16 -16 -18 -16 -34 0 -16
16 -15 17 17 17 32 0 33 -1 17 -17z m-7640 -9 c-3 -3 -12 -4 -19 -1 -8 3 -5 6
6 6 11 1 17 -2 13 -5z m353 -4 c0 -5 -12 -10 -27 -9 l-28 1 25 8 c14 4 26 8
28 9 1 1 2 -3 2 -9z m-145 -39 c-6 -5 -25 10 -25 20 0 5 6 4 14 -3 8 -7 12
-15 11 -17z m-1842 -247 c-17 -7 -36 -22 -42 -31 -6 -10 -11 -13 -11 -7 0 19
47 52 75 52 6 0 -4 -6 -22 -14z m72 -14 c26 -28 15 -31 -12 -3 -12 13 -19 23
-14 23 4 0 16 -9 26 -20z m1032 -77 c-2 -16 -4 -3 -4 27 0 30 2 43 4 28 2 -16
2 -40 0 -55z m250 10 c-2 -16 -4 -5 -4 22 0 28 2 40 4 28 2 -13 2 -35 0 -50z
m-680 51 c-3 -3 -12 -4 -19 -1 -8 3 -5 6 6 6 11 1 17 -2 13 -5z m280 -41 c-3
-10 -5 -2 -5 17 0 19 2 27 5 18 2 -10 2 -26 0 -35z m500 15 c-3 -8 -6 -5 -6 6
-1 11 2 17 5 13 3 -3 4 -12 1 -19z m-470 -65 c-2 -16 -4 -3 -4 27 0 30 2 43 4
28 2 -16 2 -40 0 -55z m38 67 c3 -6 -1 -7 -9 -4 -18 7 -21 14 -7 14 6 0 13 -4
16 -10z m192 4 c-3 -3 -12 -4 -19 -1 -8 3 -5 6 6 6 11 1 17 -2 13 -5z m123 2
c0 -2 -7 -7 -16 -10 -8 -3 -12 -2 -9 4 6 10 25 14 25 6z m285 -6 c3 -6 -1 -7
-9 -4 -18 7 -21 14 -7 14 6 0 13 -4 16 -10z m221 -31 c2 -31 1 -31 -3 -4 -3
16 -10 34 -16 38 -8 6 -7 7 3 4 9 -2 16 -17 16 -38z m-1752 9 c-8 -28 -33 -58
-48 -58 -6 0 -1 7 11 15 11 8 24 26 27 40 4 14 9 25 12 25 3 0 2 -10 -2 -22z
m1180 5 c9 4 16 2 16 -3 0 -6 -9 -10 -19 -10 -11 0 -22 -6 -24 -12 -3 -7 -6 1
-6 17 -1 21 2 26 8 16 5 -8 16 -11 25 -8z m243 -15 c-3 -8 -6 -5 -6 6 -1 11 2
17 5 13 3 -3 4 -12 1 -19z m480 0 c-3 -8 -6 -5 -6 6 -1 11 2 17 5 13 3 -3 4
-12 1 -19z m-1994 -43 c24 -11 25 -13 7 -9 -29 7 -60 32 -60 48 0 6 5 3 11 -7
6 -9 25 -24 42 -32z m33 33 c-10 -6 -22 -6 -26 -2 -5 5 3 10 18 11 22 1 24 0
8 -9z m1778 -4 c3 -8 2 -12 -4 -9 -6 3 -10 10 -10 16 0 14 7 11 14 -7z m-789
-4 c-3 -5 -12 -10 -18 -10 -7 0 -6 4 3 10 19 12 23 12 15 0z m310 -8 c-3 -3
-11 0 -18 7 -9 10 -8 11 6 5 10 -3 15 -9 12 -12z m-658 2 c-3 -3 -12 -4 -19
-1 -8 3 -5 6 6 6 11 1 17 -2 13 -5z m776 -1 c-7 -2 -21 -2 -30 0 -10 3 -4 5
12 5 17 0 24 -2 18 -5z m462 -23 c-3 -5 -14 -10 -23 -9 -14 0 -13 2 3 9 27 11
27 11 20 0z m-4295 -690 c0 -27 2 -29 28 -24 37 7 62 -17 62 -59 0 -49 -14
-61 -65 -63 l-45 -2 0 89 c0 53 4 89 10 89 6 0 10 -13 10 -30z m200 10 c-32
-25 -43 -25 -28 0 7 11 22 20 33 20 18 0 18 -2 -5 -20z m890 5 c-7 -8 -19 -15
-27 -15 -13 0 -13 3 -3 15 7 8 19 15 27 15 13 0 13 -3 3 -15z m-1329 -5 c24
-13 26 -65 2 -78 -15 -9 -14 -12 5 -40 25 -35 27 -42 10 -42 -7 0 -23 16 -36
35 -28 44 -42 44 -42 0 0 -24 -5 -35 -15 -35 -12 0 -15 16 -15 85 l0 85 36 0
c19 0 44 -5 55 -10z m784 -50 c10 -33 22 -60 26 -60 4 0 16 26 26 58 15 43 25
58 41 60 21 3 22 0 22 -82 0 -70 -3 -86 -15 -86 -12 0 -15 14 -16 63 l0 62
-23 -60 c-13 -34 -29 -60 -37 -60 -8 0 -23 26 -36 60 l-22 60 0 -62 c-1 -49
-4 -63 -16 -63 -12 0 -15 16 -15 85 0 82 1 85 23 85 20 0 27 -9 42 -60z m435
35 c0 -8 9 -15 20 -15 11 0 20 -4 20 -10 0 -5 -9 -10 -21 -10 -18 0 -20 -5
-17 -42 2 -34 7 -43 21 -42 9 1 17 -4 17 -12 0 -20 -48 -17 -58 4 -13 24 -21
112 -11 112 5 0 9 7 9 15 0 8 5 15 10 15 6 0 10 -7 10 -15z m9955 -15 c4 -13
15 -20 31 -20 27 0 31 -12 9 -30 -8 -7 -15 -23 -15 -37 0 -21 -3 -22 -20 -13
-14 7 -26 8 -39 0 -27 -14 -29 -13 -24 13 3 14 -2 29 -11 36 -23 19 -20 31 8
31 16 0 27 7 31 20 3 11 10 20 15 20 5 0 12 -9 15 -20z m-7575 0 c0 -5 -4 -10
-10 -10 -5 0 -10 5 -10 10 0 6 5 10 10 10 6 0 10 -4 10 -10z m325 0 c3 -5 1
-10 -4 -10 -6 0 -11 5 -11 10 0 6 2 10 4 10 3 0 8 -4 11 -10z m-3835 -50 c0
-37 4 -52 16 -57 23 -9 36 10 41 61 8 67 23 56 23 -17 l0 -63 -42 -1 c-57 -3
-68 9 -68 73 0 41 4 54 15 54 11 0 15 -12 15 -50z m364 34 c9 -8 16 -24 16
-35 0 -16 -7 -19 -40 -19 -22 0 -40 -4 -40 -9 0 -18 30 -33 55 -27 14 4 25 2
25 -4 0 -18 -52 -24 -79 -9 -51 29 -32 119 25 119 12 0 30 -7 38 -16z m76 4
c0 -9 3 -9 12 0 7 7 21 12 33 12 33 0 45 -20 45 -77 0 -40 -4 -53 -15 -53 -11
0 -15 12 -15 50 0 38 -4 52 -16 57 -24 9 -44 -23 -44 -69 0 -21 -4 -38 -10
-38 -6 0 -10 28 -10 65 0 37 4 65 10 65 6 0 10 -5 10 -12z m498 0 c14 -14 16
-118 2 -118 -5 0 -10 5 -10 12 0 9 -3 9 -12 0 -19 -19 -56 -14 -69 10 -10 18
-8 24 11 40 12 10 33 18 46 18 17 0 22 4 17 16 -4 12 -14 14 -34 10 -27 -5
-37 2 -22 17 11 11 58 8 71 -5z m82 2 c0 -7 6 -7 19 0 25 13 31 13 31 -3 0 -7
-10 -17 -22 -22 -18 -8 -24 -20 -26 -52 -5 -68 -22 -50 -22 22 0 37 4 65 10
65 6 0 10 -5 10 -10z m210 -55 c0 -51 -3 -65 -15 -65 -12 0 -15 14 -15 65 0
51 3 65 15 65 12 0 15 -14 15 -65z m60 53 c0 -9 3 -9 12 0 7 7 21 12 33 12 33
0 45 -20 45 -77 0 -40 -4 -53 -15 -53 -11 0 -15 12 -15 50 0 38 -4 52 -16 57
-24 9 -44 -23 -44 -69 0 -21 -4 -38 -10 -38 -6 0 -10 28 -10 65 0 37 4 65 10
65 6 0 10 -5 10 -12z m220 -8 c34 -34 26 -50 -25 -50 -25 0 -45 -4 -45 -9 0
-18 30 -33 56 -27 19 5 25 3 22 -6 -3 -7 -19 -14 -36 -16 -61 -6 -95 65 -52
108 11 11 29 20 40 20 11 0 29 -9 40 -20z m130 9 c0 -6 -14 -30 -30 -55 l-31
-44 31 0 c16 0 30 -4 30 -10 0 -5 -20 -10 -45 -10 -25 0 -45 5 -45 11 0 6 14
30 30 55 l31 44 -31 0 c-16 0 -30 5 -30 10 0 6 20 10 45 10 25 0 45 -5 45 -11z
m1440 -33 c0 -26 5 -46 13 -49 8 -4 9 -8 1 -14 -6 -4 -14 -15 -17 -23 -4 -12
-6 -11 -6 3 -1 13 -10 17 -36 17 -19 0 -35 3 -35 7 0 12 64 103 73 103 4 0 7
-20 7 -44z m162 -13 c3 -54 5 -58 28 -58 23 0 25 4 28 58 4 76 22 74 22 -3 0
-55 -2 -62 -25 -72 -19 -8 -31 -8 -50 0 -23 10 -25 17 -25 72 0 77 18 79 22 3z
m406 41 c19 -13 22 -24 20 -57 -2 -33 -9 -44 -30 -57 -25 -13 -31 -13 -55 0
-22 13 -29 24 -31 57 -2 33 1 44 20 57 12 9 29 16 38 16 9 0 26 -7 38 -16z
m7652 -5 l-25 -10 24 -18 c29 -22 22 -51 -11 -50 -23 0 -23 0 2 10 l25 10 -24
18 c-29 22 -22 51 11 50 23 0 23 0 -2 -10z m-7237 -6 c-18 -7 -16 -33 1 -33 8
0 17 8 19 18 4 15 5 15 6 -1 0 -11 -7 -21 -18 -24 -11 -3 -22 -15 -24 -27 -2
-11 -5 0 -6 27 -1 39 2 47 17 46 10 0 12 -3 5 -6z m7299 -11 c-16 -5 -15 -34
1 -51 10 -11 9 -13 -3 -9 -14 4 -32 62 -23 72 3 3 12 2 21 -2 10 -4 12 -7 4
-10z m-7982 -3 c0 -8 4 -8 15 1 8 6 23 9 35 5 17 -5 20 -15 20 -56 0 -27 -4
-49 -10 -49 -5 0 -10 21 -10 46 0 41 -2 45 -22 42 -19 -2 -24 -10 -26 -45 -5
-62 -22 -53 -22 12 0 30 5 55 10 55 6 0 10 -5 10 -11z m130 -44 c0 -30 -4 -55
-10 -55 -5 0 -10 25 -10 55 0 30 5 55 10 55 6 0 10 -25 10 -55z m211 28 c5
-16 12 -35 15 -43 4 -10 11 0 21 28 15 43 40 61 27 20 -15 -51 -34 -88 -43
-88 -6 0 -11 1 -11 3 0 1 -9 26 -20 55 -11 29 -15 52 -10 52 6 0 15 -12 21
-27z m119 -28 c0 -30 -4 -55 -10 -55 -5 0 -10 25 -10 55 0 30 5 55 10 55 6 0
10 -25 10 -55z m504 11 c1 -39 -11 -35 -14 4 -3 34 -1 44 6 37 4 -4 7 -22 8
-41z m7086 8 c0 -31 -3 -35 -22 -32 -29 4 -35 28 -9 35 26 7 27 20 4 26 -14 4
-12 5 5 6 19 1 22 -4 22 -35z m51 22 c-5 -6 -11 -22 -14 -36 -3 -19 -5 -17 -6
11 -1 25 3 36 14 36 9 0 11 -4 6 -11z m-7359 -36 c-6 -41 -12 -38 -12 6 0 19
4 33 8 30 5 -3 7 -19 4 -36z m45 -12 c-2 -13 -4 -5 -4 17 -1 22 1 32 4 23 2
-10 2 -28 0 -40z m128 42 c3 -6 -1 -7 -9 -4 -18 7 -21 14 -7 14 6 0 13 -4 16
-10z m7512 -7 c-16 -16 -18 -16 -34 0 -16 16 -15 17 17 17 32 0 33 -1 17 -17z
m-7412 -13 c7 0 16 6 18 13 3 7 6 5 6 -5 1 -11 -6 -18 -18 -18 -11 0 -22 -6
-24 -12 -3 -7 -5 1 -5 17 0 17 2 24 5 18 2 -7 11 -13 18 -13z m-98 -22 c-3 -8
-6 -5 -6 6 -1 11 2 17 5 13 3 -3 4 -12 1 -19z m-22 -16 c-3 -3 -11 0 -18 7 -9
10 -8 11 6 5 10 -3 15 -9 12 -12z m-1102 -59 c-13 -2 -33 -2 -45 0 -13 2 -3 4
22 4 25 0 35 -2 23 -4z m-3130 -117 c8 5 8 3 0 -7 -7 -7 -13 -22 -13 -34 0
-12 6 -27 13 -34 8 -9 8 -12 0 -7 -6 3 -14 0 -16 -6 -3 -7 -5 23 -5 67 1 44 3
65 5 47 3 -21 8 -30 16 -26z m-191 -2 c-16 -11 -22 -26 -24 -57 l-1 -42 -4 43
c-4 43 12 71 42 72 5 0 -1 -7 -13 -16z m76 -83 c16 -13 16 -13 -1 -7 -10 3
-21 6 -23 6 -2 0 -3 24 -2 53 l1 52 4 -45 c2 -27 11 -51 21 -59z m52 42 c0
-32 -4 -53 -8 -46 -7 11 -4 103 4 103 2 0 4 -26 4 -57z m114 41 c28 -28 11
-94 -25 -94 -5 0 0 9 11 20 11 11 20 27 20 35 0 8 -9 24 -20 35 -11 11 -16 20
-11 20 5 0 17 -7 25 -16z m114 4 c23 -23 13 -38 -23 -38 -19 0 -35 -4 -35 -8
0 -13 23 -39 40 -45 12 -4 12 -6 -2 -6 -24 -1 -48 26 -48 54 0 42 42 69 68 43z
m75 -1 c9 5 9 3 0 -8 -6 -8 -13 -32 -16 -54 -3 -29 -4 -24 -5 20 0 33 2 54 5
47 2 -6 10 -9 16 -5z m41 7 c12 -5 16 -19 14 -58 l-1 -51 -4 45 c-2 26 -11 50
-20 58 -18 13 -14 16 11 6z m79 -7 c9 5 9 3 0 -8 -6 -8 -13 -32 -16 -54 -3
-29 -4 -24 -5 20 0 33 2 54 5 47 2 -6 10 -9 16 -5z m41 7 c12 -5 16 -19 14
-58 l-1 -51 -4 45 c-2 26 -11 50 -20 58 -18 13 -14 16 11 6z m143 -7 c7 0 9
-5 5 -11 -3 -6 -9 -29 -13 -51 l-6 -40 -2 47 c-1 33 -6 50 -18 58 -16 10 -16
11 2 5 11 -4 25 -8 32 -8z m47 7 c12 -5 16 -19 14 -58 l-1 -51 -4 45 c-2 26
-11 50 -20 58 -18 13 -14 16 11 6z m110 -2 c3 -5 -5 -8 -17 -8 -19 1 -22 -4
-22 -39 0 -35 3 -40 22 -39 12 0 20 -3 17 -8 -16 -26 -56 7 -56 47 0 40 40 73
56 47z m10 -139 c-10 -7 -25 -13 -33 -12 -9 0 -4 5 12 11 26 9 27 13 29 81 l2
72 3 -70 c3 -57 1 -72 -13 -82z m-237 60 c-2 -16 -4 -3 -4 27 0 30 2 43 4 28
2 -16 2 -40 0 -55z m2523 -17 c0 -2 -8 -10 -17 -17 -16 -13 -17 -12 -4 4 13
16 21 21 21 13z m1507 -63 c-2 -16 -4 -5 -4 22 0 28 2 40 4 28 2 -13 2 -35 0
-50z m-1380 -10 c-2 -16 -4 -5 -4 22 0 28 2 40 4 28 2 -13 2 -35 0 -50z m434
19 c-4 -54 -11 -53 -11 3 0 27 3 45 7 41 4 -4 6 -24 4 -44z m746 -4 c-2 -13
-4 -5 -4 17 -1 22 1 32 4 23 2 -10 2 -28 0 -40z m-1150 -15 c-3 -10 -5 -2 -5
17 0 19 2 27 5 18 2 -10 2 -26 0 -35z m220 41 c-3 -3 -12 -4 -19 -1 -8 3 -5 6
6 6 11 1 17 -2 13 -5z m293 2 c0 -2 -7 -7 -16 -10 -8 -3 -12 -2 -9 4 6 10 25
14 25 6z m67 -2 c-3 -3 -12 -4 -19 -1 -8 3 -5 6 6 6 11 1 17 -2 13 -5z m58 -4
c3 -6 -1 -7 -9 -4 -18 7 -21 14 -7 14 6 0 13 -4 16 -10z m205 6 c0 -2 -7 -7
-16 -10 -8 -3 -12 -2 -9 4 6 10 25 14 25 6z m490 0 c0 -2 -7 -7 -16 -10 -8 -3
-12 -2 -9 4 6 10 25 14 25 6z m86 -37 c2 -31 1 -31 -3 -4 -3 16 -10 34 -16 38
-8 6 -7 7 3 4 9 -2 16 -17 16 -38z m48 33 c-7 -4 -14 -16 -17 -27 -4 -15 -5
-14 -6 8 -1 20 4 27 17 27 11 0 13 -3 6 -8z m61 -2 c3 -6 -1 -7 -9 -4 -18 7
-21 14 -7 14 6 0 13 -4 16 -10z m243 -4 c-7 -8 -15 -12 -17 -11 -5 6 10 25 20
25 5 0 4 -6 -3 -14z m66 6 c-7 -4 -14 -16 -17 -27 -4 -15 -5 -14 -6 8 -1 20 4
27 17 27 11 0 13 -3 6 -8z m246 4 c0 -2 -7 -7 -16 -10 -8 -3 -12 -2 -9 4 6 10
25 14 25 6z m-1806 -23 c9 4 16 2 16 -3 0 -6 -9 -10 -19 -10 -11 0 -22 -6 -24
-12 -3 -7 -6 1 -6 17 -1 21 2 26 8 16 5 -8 16 -11 25 -8z m640 2 c-4 -8 -11
-15 -16 -15 -6 0 -5 6 2 15 7 8 14 15 16 15 2 0 1 -7 -2 -15z m1100 -2 c9 4
16 2 16 -3 0 -6 -9 -10 -19 -10 -11 0 -22 -6 -24 -12 -3 -7 -6 1 -6 17 -1 21
2 26 8 16 5 -8 16 -11 25 -8z m-1897 -15 c-3 -8 -6 -5 -6 6 -1 11 2 17 5 13 3
-3 4 -12 1 -19z m670 0 c-3 -8 -6 -5 -6 6 -1 11 2 17 5 13 3 -3 4 -12 1 -19z
m490 0 c-3 -8 -6 -5 -6 6 -1 11 2 17 5 13 3 -3 4 -12 1 -19z m253 7 c0 -1 -11
-5 -25 -7 -16 -3 -25 -1 -25 7 0 8 9 10 25 7 14 -2 25 -6 25 -7z m-897 -2 c-7
-2 -19 -2 -25 0 -7 3 -2 5 12 5 14 0 19 -2 13 -5z m1460 0 c-7 -2 -21 -2 -30
0 -10 3 -4 5 12 5 17 0 24 -2 18 -5z m52 -3 c3 -6 -1 -7 -9 -4 -18 7 -21 14
-7 14 6 0 13 -4 16 -10z m-2235 -4 c0 -2 -8 -10 -17 -17 -16 -13 -17 -12 -4 4
13 16 21 21 21 13z m1474 -12 c3 -8 2 -12 -4 -9 -6 3 -10 10 -10 16 0 14 7 11
14 -7z m-59 -12 c-3 -3 -11 0 -18 7 -9 10 -8 11 6 5 10 -3 15 -9 12 -12z
m-3465 -276 c0 -51 -1 -53 -27 -52 -25 1 -28 5 -28 36 0 30 3 35 23 34 15 0
22 5 22 18 0 10 2 18 5 18 3 0 5 -24 5 -54z m416 43 c-15 -9 -16 -13 -5 -20
10 -6 11 -9 2 -9 -8 0 -14 -15 -14 -37 l-2 -38 -6 40 c-8 46 2 75 27 75 15 -1
15 -2 -2 -11z m74 -44 c0 -30 -4 -55 -10 -55 -5 0 -10 25 -10 55 0 30 5 55 10
55 6 0 10 -25 10 -55z m-587 38 c-13 -2 -23 -11 -23 -19 0 -8 10 -15 23 -15
l22 -2 -22 -4 c-14 -3 -23 -12 -23 -23 0 -11 9 -20 23 -23 16 -3 13 -5 -10 -6
l-33 -1 0 50 0 50 33 -1 c23 -1 26 -3 10 -6z m186 -21 c-13 -5 -11 -46 4 -61
10 -11 9 -13 -3 -9 -15 5 -30 62 -22 85 3 9 7 9 17 0 7 -7 9 -13 4 -15z m-52
-54 c-2 -13 -4 -3 -4 22 0 25 2 35 4 23 2 -13 2 -33 0 -45z m178 22 c0 -28 -4
-35 -20 -35 -11 0 -23 -9 -27 -20 -3 -12 -6 4 -7 36 -1 55 0 56 27 55 24 -1
27 -5 27 -36z m62 29 c-10 -6 -17 -22 -17 -39 0 -17 -4 -30 -10 -30 -5 0 -10
17 -10 38 0 33 3 37 27 39 22 1 24 -1 10 -8z m78 -29 c0 -31 -3 -35 -25 -35
-19 0 -26 6 -28 23 -5 36 5 54 30 50 19 -2 23 -9 23 -38z m95 0 c0 -22 -4 -40
-10 -40 -5 0 -10 18 -10 40 0 22 5 40 10 40 6 0 10 -18 10 -40z m118 18 c3
-13 -3 -18 -22 -18 -32 0 -34 -17 -3 -30 22 -10 22 -10 -3 -7 -26 2 -38 32
-26 63 8 21 50 14 54 -8z m-1331 -460 c-2 -18 -4 -6 -4 27 0 33 2 48 4 33 2
-15 2 -42 0 -60z m830 0 c-2 -18 -4 -6 -4 27 0 33 2 48 4 33 2 -15 2 -42 0
-60z m-1248 58 c6 -7 9 -21 5 -30 -3 -9 0 -24 7 -34 11 -14 11 -15 -1 -4 -20
18 -57 15 -69 -5 -6 -10 -11 -13 -11 -6 0 6 5 15 11 19 6 3 8 17 5 30 -4 16
-1 26 11 33 24 14 29 13 42 -3z m179 -9 c2 -10 -4 -27 -13 -36 -15 -17 -14
-19 7 -26 21 -7 20 -8 -10 -12 -46 -6 -50 2 -19 35 34 35 34 42 1 42 -15 0
-23 4 -19 11 11 16 49 6 53 -14z m822 -6 c0 -16 4 -31 9 -33 5 -1 3 -12 -5
-22 -12 -17 -14 -17 -14 -4 0 10 -10 18 -25 20 l-25 3 22 32 c28 40 38 41 38
4z m92 1 c-7 -2 -13 -20 -13 -40 l-2 -37 -6 40 c-8 48 -5 56 16 48 11 -4 13
-8 5 -11z m-1036 -28 c-3 -7 -1 -16 4 -19 6 -4 10 -11 10 -17 0 -6 -6 -6 -15
2 -9 7 -13 20 -10 28 3 8 0 22 -7 31 -12 14 -11 15 5 2 10 -8 16 -20 13 -27z
m211 30 c-3 -3 -12 -4 -19 -1 -8 3 -5 6 6 6 11 1 17 -2 13 -5z m77 -17 c12
-19 -1 -48 -25 -54 -8 -3 -7 0 4 7 9 6 17 20 17 30 0 10 -8 24 -17 30 -11 7
-12 10 -4 7 8 -2 19 -11 25 -20z m341 13 c3 -6 -1 -7 -9 -4 -18 7 -21 14 -7
14 6 0 13 -4 16 -10z m489 -13 c12 -19 -1 -48 -25 -54 -8 -3 -7 0 4 7 9 6 17
20 17 30 0 10 -8 24 -17 30 -11 7 -12 10 -4 7 8 -2 19 -11 25 -20z m124 12
c-10 -5 -19 -20 -19 -32 -1 -18 -2 -18 -6 -4 -5 20 13 47 31 47 6 0 3 -5 -6
-11z m112 -10 c0 -6 -4 -7 -10 -4 -5 3 -10 11 -10 16 0 6 5 7 10 4 6 -3 10
-11 10 -16z m145 11 c3 -6 -1 -7 -9 -4 -18 7 -21 14 -7 14 6 0 13 -4 16 -10z
m65 6 c0 -2 -7 -7 -16 -10 -8 -3 -12 -2 -9 4 6 10 25 14 25 6z m30 -43 c0 -25
-3 -44 -6 -40 -4 3 -6 21 -6 39 0 43 1 48 7 48 3 0 5 -21 5 -47z m-923 -15
c-2 -13 -4 -5 -4 17 -1 22 1 32 4 23 2 -10 2 -28 0 -40z m57 36 c3 -8 2 -12
-4 -9 -6 3 -10 10 -10 16 0 14 7 11 14 -7z m-101 -11 c-7 -2 -21 -2 -30 0 -10
3 -4 5 12 5 17 0 24 -2 18 -5z m10522 -13 c4 -13 15 -20 31 -20 27 0 31 -12 9
-30 -8 -7 -15 -23 -15 -37 0 -21 -3 -22 -20 -13 -14 7 -26 8 -39 0 -27 -14
-29 -13 -24 13 3 14 -2 29 -11 36 -23 19 -20 31 8 31 16 0 27 7 31 20 3 11 10
20 15 20 5 0 12 -9 15 -20z m-10655 -1 c0 8 2 12 5 9 3 -3 2 -13 -1 -22 -5
-14 -9 -15 -15 -4 -5 7 -9 18 -9 23 0 6 5 3 10 -5 8 -12 10 -12 10 -1z m50 0
c0 8 2 12 5 9 3 -3 2 -13 -1 -22 -5 -14 -9 -15 -15 -4 -5 7 -9 18 -9 23 0 6 5
3 10 -5 8 -12 10 -12 10 -1z m218 -14 c-3 -3 -9 2 -12 12 -6 14 -5 15 5 6 7
-7 10 -15 7 -18z m2402 -52 c0 -57 -3 -74 -11 -66 -9 9 -16 9 -29 0 -26 -16
-50 7 -50 49 0 36 26 59 54 48 12 -5 16 0 16 20 0 14 5 26 10 26 6 0 10 -32
10 -77z m300 67 c0 -5 -7 -10 -15 -10 -18 0 -20 -16 -2 -24 10 -5 10 -7 0 -12
-8 -3 -13 -24 -13 -50 0 -24 -4 -44 -10 -44 -5 0 -10 20 -10 45 0 25 -5 45
-10 45 -11 0 8 40 25 52 15 11 35 10 35 -2z m40 0 c0 -5 -4 -10 -10 -10 -5 0
-10 5 -10 10 0 6 5 10 10 10 6 0 10 -4 10 -10z m50 -65 c0 -43 -4 -75 -10 -75
-6 0 -10 32 -10 75 0 43 4 75 10 75 6 0 10 -32 10 -75z m-2230 44 c0 -6 -4 -7
-10 -4 -5 3 -10 11 -10 16 0 6 5 7 10 4 6 -3 10 -11 10 -16z m50 0 c0 -6 -4
-7 -10 -4 -5 3 -10 11 -10 16 0 6 5 7 10 4 6 -3 10 -11 10 -16z m185 -7 c-3
-3 -11 0 -18 7 -9 10 -8 11 6 5 10 -3 15 -9 12 -12z m1801 -2 c8 0 14 -4 14
-10 0 -5 -7 -10 -15 -10 -26 0 -19 -59 8 -69 20 -8 20 -10 4 -16 -24 -10 -39
6 -47 52 -5 34 10 88 18 63 2 -5 10 -10 18 -10z m8004 9 l-25 -10 24 -18 c29
-22 22 -51 -11 -50 -23 0 -23 0 2 10 l25 10 -24 18 c-29 22 -22 51 11 50 23 0
23 0 -2 -10z m-7346 -8 c4 -5 -3 -7 -14 -4 -14 4 -20 0 -20 -12 0 -12 6 -16
20 -12 11 3 18 1 14 -4 -3 -5 -11 -9 -19 -9 -7 0 -16 -10 -18 -22 -2 -13 -5
-2 -6 25 -1 40 2 47 18 47 11 0 22 -4 25 -9z m7408 -9 c-16 -5 -15 -34 1 -51
10 -11 9 -13 -3 -9 -14 4 -32 62 -23 72 3 3 12 2 21 -2 10 -4 12 -7 4 -10z
m-8148 -8 c30 -30 10 -94 -30 -94 -19 0 -54 36 -54 55 0 19 35 55 54 55 8 0
22 -7 30 -16z m226 -39 c0 -30 -4 -55 -10 -55 -5 0 -10 25 -10 55 0 30 5 55
10 55 6 0 10 -25 10 -55z m162 38 c29 -26 22 -43 -18 -43 -43 0 -42 -22 2 -31
24 -5 26 -7 11 -14 -10 -4 -29 -3 -43 3 -43 20 -28 100 20 102 5 0 18 -7 28
-17z m103 7 c4 -6 -5 -10 -19 -10 -34 0 -33 -11 5 -33 35 -20 34 -38 -4 -51
-19 -7 -31 -6 -39 2 -9 9 -5 12 20 12 38 0 42 17 8 30 -34 13 -42 31 -21 47
22 15 41 17 50 3z m517 -8 c-15 -5 -16 -48 -2 -55 6 -3 5 -4 -2 -3 -7 1 -14
19 -16 39 -3 32 -1 36 14 30 11 -4 13 -8 6 -11z m7208 -18 c0 -31 -3 -35 -22
-32 -29 4 -35 28 -9 35 26 7 27 20 4 26 -14 4 -12 5 5 6 19 1 22 -4 22 -35z
m51 22 c-5 -6 -11 -22 -14 -36 -3 -19 -5 -17 -6 11 -1 25 3 36 14 36 9 0 11
-4 6 -11z m-7197 -4 c2 -4 -4 -8 -14 -8 -10 0 -16 4 -14 8 3 4 9 8 14 8 5 0
11 -4 14 -8z m7523 -9 c-16 -16 -18 -16 -34 0 -16 16 -15 17 17 17 32 0 33 -1
17 -17z m-10292 -3 c-3 -5 -14 -10 -23 -9 -14 0 -13 2 3 9 27 11 27 11 20 0z
m2664 -27 c-1 -17 -3 -21 -6 -10 -2 9 -10 17 -16 17 -7 0 -6 4 3 10 20 13 20
13 19 -17z m104 10 c-7 -2 -21 -2 -30 0 -10 3 -4 5 12 5 17 0 24 -2 18 -5z
m-139 -19 c3 -8 2 -12 -4 -9 -6 3 -10 10 -10 16 0 14 7 11 14 -7z m137 -12
c-7 -2 -18 1 -23 6 -8 8 -4 9 13 5 13 -4 18 -8 10 -11z m-1064 -329 c-2 -16
-4 -5 -4 22 0 28 2 40 4 28 2 -13 2 -35 0 -50z m250 0 c-2 -16 -4 -5 -4 22 0
28 2 40 4 28 2 -13 2 -35 0 -50z m-400 5 c-2 -13 -4 -5 -4 17 -1 22 1 32 4 23
2 -10 2 -28 0 -40z m498 42 c3 -6 -1 -7 -9 -4 -18 7 -21 14 -7 14 6 0 13 -4
16 -10z m-241 -44 c1 -19 -2 -32 -6 -29 -5 2 -8 20 -8 40 0 46 13 36 14 -11z
m-124 30 c0 -2 -7 -7 -16 -10 -8 -3 -12 -2 -9 4 6 10 25 14 25 6z m250 0 c0
-2 -7 -7 -16 -10 -8 -3 -12 -2 -9 4 6 10 25 14 25 6z m300 0 c0 -2 -7 -7 -16
-10 -8 -3 -12 -2 -9 4 6 10 25 14 25 6z m75 -6 c3 -6 -1 -7 -9 -4 -18 7 -21
14 -7 14 6 0 13 -4 16 -10z m220 0 c3 -6 -1 -7 -9 -4 -18 7 -21 14 -7 14 6 0
13 -4 16 -10z m135 6 c0 -2 -7 -7 -16 -10 -8 -3 -12 -2 -9 4 6 10 25 14 25 6z
m-796 -23 c9 4 16 2 16 -3 0 -6 -9 -10 -19 -10 -11 0 -22 -6 -24 -12 -3 -7 -6
1 -6 17 -1 21 2 26 8 16 5 -8 16 -11 25 -8z m500 2 c-4 -8 -11 -15 -16 -15 -6
0 -5 6 2 15 7 8 14 15 16 15 2 0 1 -7 -2 -15z m-737 -17 c-3 -8 -6 -5 -6 6 -1
11 2 17 5 13 3 -3 4 -12 1 -19z m930 0 c-3 -8 -6 -5 -6 6 -1 11 2 17 5 13 3
-3 4 -12 1 -19z m-314 5 c-7 -2 -21 -2 -30 0 -10 3 -4 5 12 5 17 0 24 -2 18
-5z m60 0 c-7 -2 -19 -2 -25 0 -7 3 -2 5 12 5 14 0 19 -2 13 -5z m-628 -31
c-3 -3 -11 0 -18 7 -9 10 -8 11 6 5 10 -3 15 -9 12 -12z m250 0 c-3 -3 -11 0
-18 7 -9 10 -8 11 6 5 10 -3 15 -9 12 -12z m245 8 c0 -5 -2 -10 -4 -10 -3 0
-8 5 -11 10 -3 6 -1 10 4 10 6 0 11 -4 11 -10z m-127 -7 c-7 -2 -21 -2 -30 0
-10 3 -4 5 12 5 17 0 24 -2 18 -5z m552 -23 c-3 -5 -14 -10 -23 -9 -14 0 -13
2 3 9 27 11 27 11 20 0z m-4236 -196 c20 -54 20 -88 0 -51 -12 21 -59 23 -59
2 0 -8 -4 -15 -10 -15 -13 0 -13 11 4 51 7 19 16 42 19 52 11 30 24 19 46 -39z
m159 19 c25 2 27 -1 30 -40 2 -26 -1 -43 -7 -43 -6 0 -11 16 -11 35 0 43 -27
49 -36 8 -11 -51 -12 -48 -12 17 0 36 3 55 5 43 3 -16 11 -21 31 -20z m82 27
c0 -5 -4 -10 -10 -10 -5 0 -10 5 -10 10 0 6 5 10 10 10 6 0 10 -4 10 -10z
m678 -20 c15 -1 15 -2 0 -11 -22 -12 -24 -59 -3 -59 8 0 15 -5 15 -11 0 -6 -8
-9 -17 -7 -12 2 -20 16 -24 43 -6 39 0 82 9 57 2 -7 11 -12 20 -12z m-828 -10
c0 -5 -9 -10 -20 -10 -15 0 -20 -7 -20 -25 0 -18 5 -25 20 -25 11 0 20 -4 20
-10 0 -14 -33 -13 -48 2 -27 27 -7 78 30 78 10 0 18 -4 18 -10z m150 -35 c0
-25 -4 -45 -10 -45 -5 0 -10 20 -10 45 0 25 5 45 10 45 6 0 10 -20 10 -45z
m74 39 c27 -10 20 -44 -9 -44 -14 0 -25 -4 -25 -10 0 -10 14 -14 39 -11 7 2
10 -2 6 -8 -8 -15 -38 -14 -53 1 -22 22 -8 78 19 78 4 0 14 -3 23 -6z m50 -6
c16 -53 18 -54 34 -18 8 19 17 30 19 23 5 -14 -23 -83 -34 -83 -5 0 -16 20
-25 45 -10 25 -13 45 -7 45 5 0 11 -6 13 -12z m134 0 c20 -20 14 -38 -13 -38
-34 0 -32 -18 3 -22 24 -4 25 -5 8 -13 -38 -17 -73 37 -46 71 15 17 32 18 48
2z m160 -35 c2 -26 -1 -43 -7 -43 -6 0 -11 16 -11 35 0 24 -5 35 -15 35 -10 0
-15 -11 -15 -35 0 -19 -4 -35 -10 -35 -5 0 -10 16 -10 36 0 28 -3 35 -17 32
-12 -2 -19 -14 -21 -36 -5 -48 -22 -39 -22 12 l0 43 63 -1 62 -1 3 -42z m90
35 c22 -22 13 -38 -19 -38 -17 0 -28 -4 -24 -10 3 -5 17 -10 31 -10 14 0 22
-4 19 -10 -16 -25 -75 2 -75 35 0 17 27 45 44 45 6 0 17 -5 24 -12z m100 0
c14 -12 16 -78 2 -78 -5 0 -10 16 -10 35 0 28 -4 35 -20 35 -16 0 -20 -7 -20
-35 0 -19 -4 -35 -10 -35 -5 0 -10 20 -10 44 0 41 2 44 28 44 15 0 33 -5 40
-10z m152 1 c0 -6 -7 -9 -15 -6 -8 4 -17 2 -20 -3 -4 -6 -2 -10 4 -10 5 0 17
-7 26 -16 12 -12 13 -19 4 -30 -14 -17 -45 -18 -55 -2 -5 8 0 9 14 6 32 -9 36
7 6 27 -20 13 -23 19 -13 31 14 17 49 19 49 3z m-654 -256 c33 -11 67 -34 105
-72 84 -85 112 -202 74 -311 -14 -41 -14 -43 10 -72 36 -42 33 -82 -9 -124
-33 -33 -35 -34 -120 -34 -62 0 -96 5 -119 17 -18 9 -47 15 -65 14 -95 -8
-230 91 -265 193 -40 117 -14 231 72 317 35 35 73 62 101 72 60 21 155 21 216
0z m10859 -273 c4 -13 15 -20 31 -20 27 0 31 -12 9 -30 -8 -7 -15 -23 -15 -37
0 -21 -3 -22 -20 -13 -14 7 -26 8 -39 0 -27 -14 -29 -13 -24 13 3 14 -2 29
-11 36 -23 19 -20 31 8 31 16 0 27 7 31 20 3 11 10 20 15 20 5 0 12 -9 15 -20z
m-7340 0 c3 -5 1 -10 -4 -10 -6 0 -11 5 -11 10 0 6 2 10 4 10 3 0 8 -4 11 -10z
m650 0 c3 -5 1 -10 -4 -10 -6 0 -11 5 -11 10 0 6 2 10 4 10 3 0 8 -4 11 -10z
m155 0 c0 -5 -5 -10 -11 -10 -5 0 -7 5 -4 10 3 6 8 10 11 10 2 0 4 -4 4 -10z
m6750 -21 l-25 -10 24 -18 c29 -22 22 -51 -11 -50 -23 0 -23 0 2 10 l25 10
-24 18 c-29 22 -22 51 11 50 23 0 23 0 -2 -10z m-6297 -6 c-18 -7 -16 -33 1
-33 8 0 17 8 19 18 4 15 5 15 6 -1 0 -11 -7 -21 -18 -24 -11 -3 -22 -15 -24
-27 -2 -11 -5 0 -6 27 -1 39 2 47 17 46 10 0 12 -3 5 -6z m6359 -11 c-16 -5
-15 -34 1 -51 10 -11 9 -13 -3 -9 -14 4 -32 62 -23 72 3 3 12 2 21 -2 10 -4
12 -7 4 -10z m-8332 -2 c0 -7 7 -7 20 0 13 7 26 7 37 1 11 -6 23 -5 34 2 28
17 49 -8 49 -59 0 -56 -18 -57 -22 -1 -2 34 -7 42 -23 42 -16 0 -21 -8 -23
-42 -4 -57 -22 -55 -22 2 0 37 -3 45 -19 45 -21 0 -31 -19 -31 -61 0 -16 -4
-29 -10 -29 -5 0 -10 25 -10 55 0 30 5 55 10 55 6 0 10 -5 10 -10z m241 0 c10
-6 19 -20 19 -30 0 -16 -7 -20 -36 -20 -46 0 -41 -23 7 -30 31 -5 32 -6 11
-14 -52 -18 -95 50 -56 88 18 19 28 20 55 6z m69 0 c0 -7 7 -7 20 0 13 7 26 7
37 1 11 -6 23 -5 34 2 28 17 49 -8 49 -59 0 -56 -18 -57 -22 -1 -2 34 -7 42
-23 42 -16 0 -21 -8 -23 -42 -4 -57 -22 -55 -22 2 0 37 -3 45 -19 45 -21 0
-31 -19 -31 -61 0 -16 -4 -29 -10 -29 -5 0 -10 25 -10 55 0 30 5 55 10 55 6 0
10 -5 10 -10z m250 -10 c11 -11 20 -27 20 -35 0 -19 -35 -55 -54 -55 -22 0
-46 29 -46 55 0 26 24 55 46 55 8 0 23 -9 34 -20z m85 10 c8 13 25 13 25 1 0
-5 -9 -13 -20 -16 -16 -5 -20 -15 -20 -46 0 -21 -4 -39 -10 -39 -5 0 -10 25
-10 56 0 47 2 55 14 45 10 -8 16 -9 21 -1z m75 -45 c0 -30 -4 -55 -10 -55 -5
0 -10 25 -10 55 0 30 5 55 10 55 6 0 10 -25 10 -55z m94 49 c11 -4 16 -19 16
-53 l0 -46 -38 0 c-33 0 -37 3 -37 25 0 20 6 26 28 28 15 2 27 9 27 18 0 9
-10 14 -27 14 -22 0 -25 2 -13 10 18 11 23 12 44 4z m181 -4 c4 -6 -5 -10 -19
-10 -33 0 -33 -13 -1 -28 34 -16 33 -50 -1 -58 -14 -4 -30 -2 -37 5 -8 8 -4
11 16 11 34 0 35 17 2 32 -26 12 -34 43 -12 51 21 9 46 7 52 -3z m109 -6 c27
-27 20 -44 -20 -44 -43 0 -42 -22 2 -31 24 -5 26 -7 11 -14 -10 -4 -29 -3 -43
3 -19 9 -24 19 -24 46 0 50 42 73 74 40z m81 6 c8 13 25 13 25 1 0 -5 -9 -13
-20 -16 -16 -5 -20 -15 -20 -46 0 -21 -4 -39 -10 -39 -5 0 -10 25 -10 56 0 47
2 55 14 45 10 -8 16 -9 21 -1z m65 -2 c1 -7 7 -26 14 -43 l13 -30 13 43 c7 23
17 42 22 42 12 0 10 -9 -9 -62 -9 -27 -22 -48 -29 -48 -6 0 -20 25 -31 55 -17
44 -18 55 -7 55 8 0 14 -6 14 -12z m120 -43 c0 -30 -4 -55 -10 -55 -5 0 -10
25 -10 55 0 30 5 55 10 55 6 0 10 -25 10 -55z m95 46 c3 -5 -5 -11 -17 -13
-18 -2 -23 -9 -23 -33 0 -23 5 -31 25 -36 21 -5 22 -7 8 -13 -9 -4 -26 -3 -37
4 -27 14 -29 74 -3 89 22 13 39 14 47 2z m55 -46 c0 -30 -4 -55 -10 -55 -5 0
-10 25 -10 55 0 30 5 55 10 55 6 0 10 -25 10 -55z m111 45 c29 -16 26 -77 -5
-91 -37 -17 -66 3 -66 46 0 46 31 66 71 45z m109 0 c12 -8 9 -10 -12 -10 -35
0 -36 -13 -3 -28 34 -16 33 -50 -1 -58 -14 -4 -30 -2 -37 5 -8 8 -4 11 16 11
34 0 35 17 2 32 -38 17 -31 54 10 57 6 0 17 -4 25 -9z m514 -34 c1 -39 -11
-35 -14 4 -3 34 -1 44 6 37 4 -4 7 -22 8 -41z m6146 8 c0 -31 -3 -35 -22 -32
-29 4 -35 28 -9 35 26 7 27 20 4 26 -14 4 -12 5 5 6 19 1 22 -4 22 -35z m51
22 c-5 -6 -11 -22 -14 -36 -3 -19 -5 -17 -6 11 -1 25 3 36 14 36 9 0 11 -4 6
-11z m-6419 -36 c-6 -41 -12 -38 -12 6 0 19 4 33 8 30 5 -3 7 -19 4 -36z m45
-12 c-2 -13 -4 -5 -4 17 -1 22 1 32 4 23 2 -10 2 -28 0 -40z m128 42 c3 -6 -1
-7 -9 -4 -18 7 -21 14 -7 14 6 0 13 -4 16 -10z m6572 -7 c-16 -16 -18 -16 -34
0 -16 16 -15 17 17 17 32 0 33 -1 17 -17z m-6472 -13 c7 0 16 6 18 13 3 7 6 5
6 -5 1 -11 -6 -18 -18 -18 -11 0 -22 -6 -24 -12 -3 -7 -5 1 -5 17 0 17 2 24 5
18 2 -7 11 -13 18 -13z m-98 -22 c-3 -8 -6 -5 -6 6 -1 11 2 17 5 13 3 -3 4
-12 1 -19z m-1297 2 c0 -5 -11 -10 -25 -10 -14 0 -25 5 -25 10 0 6 11 10 25
10 14 0 25 -4 25 -10z m1275 -18 c-3 -3 -11 0 -18 7 -9 10 -8 11 6 5 10 -3 15
-9 12 -12z m-1458 -339 c-2 -16 -4 -3 -4 27 0 30 2 43 4 28 2 -16 2 -40 0 -55z
m250 10 c-2 -16 -4 -5 -4 22 0 28 2 40 4 28 2 -13 2 -35 0 -50z m-809 50 c-10
-2 -26 -2 -35 0 -10 3 -2 5 17 5 19 0 27 -2 18 -5z m409 -45 c-2 -13 -4 -5 -4
17 -1 22 1 32 4 23 2 -10 2 -28 0 -40z m257 -2 c1 -19 -2 -32 -6 -29 -5 2 -8
20 -8 40 0 46 13 36 14 -11z m243 22 c-3 -8 -6 -5 -6 6 -1 11 2 17 5 13 3 -3
4 -12 1 -19z m-852 2 c3 -6 -1 -7 -9 -4 -18 7 -21 14 -7 14 6 0 13 -4 16 -10z
m735 6 c0 -2 -7 -7 -16 -10 -8 -3 -12 -2 -9 4 6 10 25 14 25 6z m300 0 c0 -2
-7 -7 -16 -10 -8 -3 -12 -2 -9 4 6 10 25 14 25 6z m75 -6 c3 -6 -1 -7 -9 -4
-18 7 -21 14 -7 14 6 0 13 -4 16 -10z m220 0 c3 -6 -1 -7 -9 -4 -18 7 -21 14
-7 14 6 0 13 -4 16 -10z m-661 -17 c9 4 16 2 16 -3 0 -6 -9 -10 -19 -10 -11 0
-22 -6 -24 -12 -3 -7 -6 1 -6 17 -1 21 2 26 8 16 5 -8 16 -11 25 -8z m500 2
c-4 -8 -11 -15 -16 -15 -6 0 -5 6 2 15 7 8 14 15 16 15 2 0 1 -7 -2 -15z
m-737 -17 c-3 -8 -6 -5 -6 6 -1 11 2 17 5 13 3 -3 4 -12 1 -19z m930 0 c-3 -8
-6 -5 -6 6 -1 11 2 17 5 13 3 -3 4 -12 1 -19z m120 0 c-3 -8 -6 -5 -6 6 -1 11
2 17 5 13 3 -3 4 -12 1 -19z m-1484 5 c-7 -2 -19 -2 -25 0 -7 3 -2 5 12 5 14
0 19 -2 13 -5z m1050 0 c-7 -2 -21 -2 -30 0 -10 3 -4 5 12 5 17 0 24 -2 18 -5z
m60 0 c-7 -2 -19 -2 -25 0 -7 3 -2 5 12 5 14 0 19 -2 13 -5z m-378 -31 c-3 -3
-11 0 -18 7 -9 10 -8 11 6 5 10 -3 15 -9 12 -12z m245 8 c0 -5 -2 -10 -4 -10
-3 0 -8 5 -11 10 -3 6 -1 10 4 10 6 0 11 -4 11 -10z m-127 -7 c-7 -2 -21 -2
-30 0 -10 3 -4 5 12 5 17 0 24 -2 18 -5z m552 -23 c-3 -5 -14 -10 -23 -9 -14
0 -13 2 3 9 27 11 27 11 20 0z m-4118 -97 c-2 -16 -4 -5 -4 22 0 28 2 40 4 28
2 -13 2 -35 0 -50z m280 -10 c-2 -16 -4 -3 -4 27 0 30 2 43 4 28 2 -16 2 -40
0 -55z m244 22 c5 4 9 1 9 -4 0 -6 -4 -11 -9 -11 -5 0 -12 -8 -14 -17 -3 -10
-4 7 -4 37 0 32 2 41 4 22 2 -18 9 -30 14 -27z m-1134 39 c-3 -3 -12 -4 -19
-1 -8 3 -5 6 6 6 11 1 17 -2 13 -5z m593 -18 c0 -2 -7 -7 -16 -10 -8 -3 -12
-2 -9 4 6 10 25 14 25 6z m97 -2 c-3 -3 -12 -4 -19 -1 -8 3 -5 6 6 6 11 1 17
-2 13 -5z m58 -4 c3 -6 -1 -7 -9 -4 -18 7 -21 14 -7 14 6 0 13 -4 16 -10z
m125 6 c0 -2 -7 -7 -16 -10 -8 -3 -12 -2 -9 4 6 10 25 14 25 6z m155 -6 c3 -6
-1 -7 -9 -4 -18 7 -21 14 -7 14 6 0 13 -4 16 -10z m-221 -17 c9 4 16 2 16 -3
0 -6 -9 -10 -19 -10 -11 0 -22 -6 -24 -12 -3 -7 -6 1 -6 17 -1 21 2 26 8 16 5
-8 16 -11 25 -8z m-801 0 c-7 -2 -19 -2 -25 0 -7 3 -2 5 12 5 14 0 19 -2 13
-5z m44 -15 c-3 -8 -6 -5 -6 6 -1 11 2 17 5 13 3 -3 4 -12 1 -19z m150 -10
c-3 -7 -5 -2 -5 12 0 14 2 19 5 13 2 -7 2 -19 0 -25z m553 17 c0 -1 -11 -5
-25 -7 -16 -3 -25 -1 -25 7 0 8 9 10 25 7 14 -2 25 -6 25 -7z m217 -7 c-3 -8
-6 -5 -6 6 -1 11 2 17 5 13 3 -3 4 -12 1 -19z m90 0 c-3 -8 -6 -5 -6 6 -1 11
2 17 5 13 3 -3 4 -12 1 -19z m-604 5 c-7 -2 -19 -2 -25 0 -7 3 -2 5 12 5 14 0
19 -2 13 -5z m574 -15 c-3 -8 -6 -5 -6 6 -1 11 2 17 5 13 3 -3 4 -12 1 -19z
m-33 -4 c3 -8 2 -12 -4 -9 -6 3 -10 10 -10 16 0 14 7 11 14 -7z m-409 -12 c-3
-3 -11 0 -18 7 -9 10 -8 11 6 5 10 -3 15 -9 12 -12z m280 0 c-3 -3 -11 0 -18
7 -9 10 -8 11 6 5 10 -3 15 -9 12 -12z m80 0 c-3 -3 -11 0 -18 7 -9 10 -8 11
6 5 10 -3 15 -9 12 -12z m-942 1 c-7 -2 -19 -2 -25 0 -7 3 -2 5 12 5 14 0 19
-2 13 -5z m-103 -468 c0 -20 5 -25 25 -25 20 0 25 5 25 25 0 14 5 25 10 25 6
0 10 -27 10 -60 0 -33 -4 -60 -10 -60 -5 0 -10 11 -10 25 0 20 -5 25 -25 25
-20 0 -25 -5 -25 -25 0 -14 -4 -25 -10 -25 -6 0 -10 27 -10 60 0 33 4 60 10
60 6 0 10 -11 10 -25z m120 15 c0 -5 -4 -10 -10 -10 -5 0 -10 5 -10 10 0 6 5
10 10 10 6 0 10 -4 10 -10z m168 -27 c25 2 27 -1 30 -40 2 -26 -1 -43 -7 -43
-6 0 -11 16 -11 35 0 43 -27 49 -36 8 -11 -51 -12 -48 -12 17 0 36 3 55 5 43
3 -16 11 -21 31 -20z m82 -23 c0 -33 -4 -60 -10 -60 -6 0 -10 27 -10 60 0 33
4 60 10 60 6 0 10 -27 10 -60z m40 50 c0 -5 -5 -10 -11 -10 -5 0 -7 5 -4 10 3
6 8 10 11 10 2 0 4 -4 4 -10z m150 -10 c0 -13 5 -18 15 -14 8 4 22 1 30 -6 17
-14 21 -80 5 -80 -5 0 -10 16 -10 35 0 28 -4 35 -20 35 -16 0 -20 -7 -20 -35
0 -19 -4 -35 -10 -35 -6 0 -10 27 -10 60 0 33 4 60 10 60 6 0 10 -9 10 -20z
m118 -10 c15 -1 15 -2 0 -11 -22 -12 -24 -59 -3 -59 8 0 15 -5 15 -11 0 -6 -8
-9 -17 -7 -12 2 -20 16 -24 43 -6 39 0 82 9 57 2 -7 11 -12 20 -12z m-558 -45
c0 -25 -4 -45 -10 -45 -5 0 -10 20 -10 45 0 25 5 45 10 45 6 0 10 -20 10 -45z
m100 -10 c0 -28 -5 -56 -12 -63 -15 -15 -58 -16 -58 -2 0 6 11 10 25 10 15 0
25 6 25 15 0 9 -6 12 -15 9 -34 -13 -61 46 -34 73 7 7 25 11 40 11 28 -1 29
-3 29 -53z m190 10 c0 -25 -4 -45 -10 -45 -5 0 -10 20 -10 45 0 25 5 45 10 45
6 0 10 -20 10 -45z m100 -17 c0 -54 -2 -58 -26 -64 -14 -4 -30 -2 -37 5 -8 8
-4 11 15 11 14 0 28 6 31 14 4 11 -1 14 -21 13 -23 -2 -28 2 -30 26 -5 44 4
58 38 55 30 -2 30 -3 30 -60z m250 51 c0 -6 -7 -9 -15 -6 -8 4 -17 2 -20 -3
-4 -6 -2 -10 4 -10 5 0 17 -7 26 -16 12 -12 13 -19 4 -30 -13 -16 -45 -19 -54
-4 -4 6 6 10 22 10 l28 1 -28 20 c-22 17 -25 24 -16 35 14 17 49 19 49 3z
m10495 -99 c4 -13 15 -20 31 -20 27 0 31 -12 9 -30 -8 -7 -15 -23 -15 -37 0
-21 -3 -22 -20 -13 -14 7 -26 8 -39 0 -27 -14 -29 -13 -24 13 3 14 -2 29 -11
36 -23 19 -20 31 8 31 16 0 27 7 31 20 3 11 10 20 15 20 5 0 12 -9 15 -20z
m-5865 -65 c0 -43 -4 -75 -10 -75 -6 0 -10 32 -10 75 0 43 4 75 10 75 6 0 10
-32 10 -75z m170 45 c0 -27 2 -29 19 -18 27 17 51 -5 51 -47 0 -39 -14 -52
-57 -52 l-33 0 0 74 c0 42 4 73 10 73 6 0 10 -14 10 -30z m190 20 c0 -5 -4
-10 -10 -10 -5 0 -10 5 -10 10 0 6 5 10 10 10 6 0 10 -4 10 -10z m-2079 -10
c27 -15 24 -34 -12 -75 l-31 -35 31 0 c17 0 31 -4 31 -10 0 -5 -20 -10 -45
-10 -25 0 -45 3 -45 7 0 4 16 24 36 44 42 43 41 75 -1 67 -26 -5 -35 6 -12 15
19 8 27 8 48 -3z m119 0 c13 -8 13 -12 1 -32 -10 -16 -10 -23 -2 -26 19 -6 12
-51 -10 -62 -21 -12 -69 -6 -69 8 0 4 15 7 33 7 26 0 33 4 35 23 3 17 -2 22
-17 22 -12 0 -21 5 -21 10 0 6 9 10 20 10 11 0 20 7 20 15 0 10 -10 15 -32 15
-25 0 -29 3 -18 10 19 12 41 12 60 0z m114 -6 c22 -21 20 -28 -15 -69 l-31
-35 31 0 c17 0 31 -4 31 -10 0 -5 -20 -10 -45 -10 -25 0 -45 3 -45 6 0 4 16
24 36 46 40 44 40 63 1 63 -28 -1 -36 10 -14 18 22 10 35 7 51 -9z m116 -28
c0 -26 5 -47 13 -50 10 -5 10 -7 0 -12 -7 -3 -13 -12 -13 -20 0 -8 -4 -14 -10
-14 -5 0 -10 7 -10 15 0 10 -10 15 -30 15 -35 0 -37 11 -9 52 26 35 38 30 14
-6 -17 -25 -17 -26 5 -26 21 0 22 4 17 39 -3 22 -2 42 1 45 14 15 22 2 22 -38z
m176 29 c19 -15 19 -15 0 -30 -17 -13 -17 -15 -3 -21 24 -9 21 -51 -4 -64 -21
-12 -69 -6 -69 8 0 4 15 7 33 7 25 0 32 4 32 20 0 13 -8 21 -22 23 -13 2 -23
7 -23 12 0 5 10 10 23 12 34 5 26 23 -13 27 -29 3 -32 5 -15 11 29 12 39 12
61 -5z m136 -42 c3 -57 3 -58 33 -58 30 0 30 1 33 58 4 73 22 75 22 2 0 -47
-3 -57 -25 -71 -25 -16 -63 -12 -77 10 -11 16 -10 116 2 116 5 0 10 -26 12
-57z m226 41 c19 -13 22 -24 20 -57 -2 -33 -9 -44 -30 -57 -25 -13 -31 -13
-55 0 -22 13 -29 24 -31 57 -2 33 1 44 20 57 12 9 29 16 38 16 9 0 26 -7 38
-16z m126 0 c22 -21 20 -28 -15 -69 l-31 -35 31 0 c17 0 31 -4 31 -10 0 -5
-20 -10 -45 -10 -25 0 -45 3 -45 6 0 4 16 24 36 46 40 44 40 63 1 63 -28 -1
-36 10 -14 18 22 10 35 7 51 -9z m117 0 c9 -11 10 -20 2 -32 -7 -12 -6 -23 4
-38 12 -19 12 -24 -2 -38 -21 -20 -49 -20 -69 0 -20 19 -20 28 -1 44 11 9 13
16 5 24 -14 14 -13 43 3 49 24 10 45 7 58 -9z m103 10 c24 -9 19 -49 -10 -83
l-26 -31 31 0 c17 0 31 -4 31 -10 0 -5 -20 -10 -45 -10 -54 0 -58 14 -15 55
17 16 30 37 30 48 0 16 -5 19 -30 14 -31 -7 -43 8 -12 16 27 7 29 7 46 1z
m126 -4 c0 -5 -8 -10 -18 -10 -21 0 -42 -18 -42 -37 0 -10 4 -11 19 -1 15 9
23 9 35 -1 25 -21 20 -60 -10 -73 -23 -11 -29 -10 -45 11 -26 32 -24 67 6 96
24 25 55 33 55 15z m120 0 c0 -5 -13 -10 -30 -10 -39 0 -40 -26 -1 -33 33 -7
45 -30 31 -58 -13 -23 -57 -36 -73 -20 -8 8 -3 11 20 11 31 0 44 14 35 38 -2
6 -17 12 -33 12 -30 0 -33 8 -23 48 5 17 14 22 40 22 19 0 34 -4 34 -10z m100
-60 c0 -40 -4 -70 -10 -70 -5 0 -10 25 -10 56 0 53 -1 55 -22 48 -23 -7 -23
-6 -4 15 35 39 46 27 46 -49z m-2040 50 c0 -5 7 -10 15 -10 8 0 15 -4 15 -10
0 -5 -7 -10 -15 -10 -10 0 -15 -11 -15 -35 0 -26 4 -35 17 -35 13 0 14 -3 6
-11 -22 -22 -43 -2 -43 41 0 22 -5 40 -10 40 -6 0 -5 8 2 20 14 21 28 27 28
10z m8260 -1 l-25 -10 24 -18 c29 -22 22 -51 -11 -50 -23 0 -23 0 2 10 l25 10
-24 18 c-29 22 -22 51 11 50 23 0 23 0 -2 -10z m-5257 -6 c-18 -7 -16 -33 1
-33 8 0 17 8 19 18 4 15 5 15 6 -1 0 -11 -7 -21 -18 -24 -11 -3 -22 -15 -24
-27 -2 -11 -5 0 -6 27 -1 39 2 47 17 46 10 0 12 -3 5 -6z m5319 -11 c-16 -5
-15 -34 1 -51 10 -11 9 -13 -3 -9 -14 4 -32 62 -23 72 3 3 12 2 21 -2 10 -4
12 -7 4 -10z m-8198 -8 c27 -27 20 -44 -20 -44 -43 0 -42 -22 2 -31 24 -5 26
-7 11 -14 -10 -4 -29 -3 -43 3 -19 9 -24 19 -24 46 0 50 42 73 74 40z m61 -29
l10 -39 13 42 c16 51 31 50 47 -3 l10 -39 13 42 c7 23 17 42 22 42 5 0 3 -21
-5 -47 -8 -27 -15 -51 -15 -55 0 -5 -6 -8 -14 -8 -9 0 -17 15 -21 40 -4 22
-10 40 -15 40 -5 0 -11 -18 -15 -40 -4 -25 -12 -40 -21 -40 -8 0 -14 3 -14 8
0 4 -7 29 -15 55 -10 34 -11 47 -3 45 6 -2 16 -22 23 -43z m2089 39 c11 -4 16
-19 16 -53 l0 -46 -38 0 c-33 0 -37 3 -37 25 0 20 6 26 28 28 15 2 27 9 27 18
0 9 -10 14 -27 14 -22 0 -25 2 -13 10 18 11 23 12 44 4z m266 -68 c0 -58 -3
-75 -16 -80 -23 -9 -34 -7 -34 4 0 6 7 10 15 10 12 0 15 14 15 70 0 40 4 70
10 70 6 0 10 -31 10 -74z m101 64 c10 -6 19 -20 19 -30 0 -16 -7 -20 -35 -20
-26 0 -33 -3 -29 -15 4 -9 19 -15 38 -15 24 0 27 -3 16 -10 -8 -5 -21 -10 -27
-10 -18 0 -53 37 -53 55 0 14 34 55 46 55 3 0 14 -5 25 -10z m123 -6 c27 -27
20 -44 -20 -44 -43 0 -42 -22 2 -31 24 -5 26 -7 11 -14 -10 -4 -29 -3 -43 3
-19 9 -24 19 -24 46 0 50 42 73 74 40z m5626 -20 c0 -31 -3 -35 -22 -32 -29 4
-35 28 -9 35 26 7 27 20 4 26 -14 4 -12 5 5 6 19 1 22 -4 22 -35z m51 22 c-5
-6 -11 -22 -14 -36 -3 -19 -5 -17 -6 11 -1 25 3 36 14 36 9 0 11 -4 6 -11z
m-5334 -48 c-2 -13 -4 -5 -4 17 -1 22 1 32 4 23 2 -10 2 -28 0 -40z m128 42
c3 -6 -1 -7 -9 -4 -18 7 -21 14 -7 14 6 0 13 -4 16 -10z m52 4 c-3 -3 -12 -4
-19 -1 -8 3 -5 6 6 6 11 1 17 -2 13 -5z m5480 -11 c-16 -16 -18 -16 -34 0 -16
16 -15 17 17 17 32 0 33 -1 17 -17z m-5710 -40 c-3 -10 -5 -2 -5 17 0 19 2 27
5 18 2 -10 2 -26 0 -35z m278 27 c7 0 16 6 18 13 3 7 6 5 6 -5 1 -11 -6 -18
-18 -18 -11 0 -22 -6 -24 -12 -3 -7 -5 1 -5 17 0 17 2 24 5 18 2 -7 11 -13 18
-13z m-98 -22 c-3 -8 -6 -5 -6 6 -1 11 2 17 5 13 3 -3 4 -12 1 -19z m-2867 2
c0 -5 -11 -10 -25 -10 -14 0 -25 5 -25 10 0 6 11 10 25 10 14 0 25 -4 25 -10z
m520 0 c0 -5 -9 -10 -20 -10 -11 0 -20 5 -20 10 0 6 9 10 20 10 11 0 20 -4 20
-10z m180 0 c0 -5 -11 -10 -25 -10 -14 0 -25 5 -25 10 0 6 11 10 25 10 14 0
25 -4 25 -10z m1060 0 c0 -5 -11 -10 -25 -10 -14 0 -25 5 -25 10 0 6 11 10 25
10 14 0 25 -4 25 -10z m360 0 c0 -5 -9 -10 -20 -10 -11 0 -20 5 -20 10 0 6 9
10 20 10 11 0 20 -4 20 -10z m725 -18 c-3 -3 -11 0 -18 7 -9 10 -8 11 6 5 10
-3 15 -9 12 -12z m-6360 -82 c4 -13 15 -20 31 -20 27 0 31 -12 9 -30 -8 -7
-15 -23 -15 -37 0 -21 -3 -22 -20 -13 -14 7 -26 8 -39 0 -27 -14 -29 -13 -24
13 3 14 -2 29 -11 36 -23 19 -20 31 8 31 16 0 27 7 31 20 3 11 10 20 15 20 5
0 12 -9 15 -20z m292 -6 c-3 -3 -12 -4 -19 -1 -8 3 -5 6 6 6 11 1 17 -2 13 -5z
m50 -46 c-3 -8 -6 -5 -6 6 -1 11 2 17 5 13 3 -3 4 -12 1 -19z m-120 6 c-3 -3
-12 -4 -19 -1 -8 3 -5 6 6 6 11 1 17 -2 13 -5z m70 0 c-3 -3 -12 -4 -19 -1 -8
3 -5 6 6 6 11 1 17 -2 13 -5z m2835 -163 c-9 -16 -18 -28 -21 -26 -4 5 27 55
34 55 2 0 -4 -13 -13 -29z m79 12 c13 -16 12 -17 -3 -4 -10 7 -18 15 -18 17 0
8 8 3 21 -13z m686 -50 c-2 -16 -4 -5 -4 22 0 28 2 40 4 28 2 -13 2 -35 0 -50z
m-620 -10 c-2 -16 -4 -5 -4 22 0 28 2 40 4 28 2 -13 2 -35 0 -50z m470 15 c-2
-13 -4 -5 -4 17 -1 22 1 32 4 23 2 -10 2 -28 0 -40z m657 36 c3 -8 2 -12 -4
-9 -6 3 -10 10 -10 16 0 14 7 11 14 -7z m271 6 c3 -6 -1 -7 -9 -4 -18 7 -21
14 -7 14 6 0 13 -4 16 -10z m270 0 c3 -6 -1 -7 -9 -4 -18 7 -21 14 -7 14 6 0
13 -4 16 -10z m70 0 c3 -6 -1 -7 -9 -4 -18 7 -21 14 -7 14 6 0 13 -4 16 -10z
m-1011 -44 c1 -19 -2 -32 -6 -29 -5 2 -8 20 -8 40 0 46 13 36 14 -11z m-124
30 c0 -2 -7 -7 -16 -10 -8 -3 -12 -2 -9 4 6 10 25 14 25 6z m86 -37 c2 -31 1
-31 -3 -4 -3 16 -10 34 -16 38 -8 6 -7 7 3 4 9 -2 16 -17 16 -38z m109 31 c3
-6 -1 -7 -9 -4 -18 7 -21 14 -7 14 6 0 13 -4 16 -10z m250 -1 c11 -16 1 -19
-13 -3 -7 8 -8 14 -3 14 5 0 13 -5 16 -11z m-1095 -8 c0 -5 -9 -19 -20 -32
l-20 -24 17 32 c19 34 23 39 23 24z m1505 -9 c-3 -3 -11 0 -18 7 -9 10 -8 11
6 5 10 -3 15 -9 12 -12z m-908 -14 c-3 -8 -6 -5 -6 6 -1 11 2 17 5 13 3 -3 4
-12 1 -19z m253 7 c0 -1 -11 -5 -25 -7 -16 -3 -25 -1 -25 7 0 8 9 10 25 7 14
-2 25 -6 25 -7z m177 -7 c-3 -8 -6 -5 -6 6 -1 11 2 17 5 13 3 -3 4 -12 1 -19z
m270 0 c-3 -8 -6 -5 -6 6 -1 11 2 17 5 13 3 -3 4 -12 1 -19z m334 -2 c-10 -12
-8 -15 11 -19 20 -4 20 -4 -4 -6 -30 -1 -35 8 -16 27 17 17 23 15 9 -2z
m-1720 -13 c13 -16 12 -17 -3 -4 -17 13 -22 21 -14 21 2 0 10 -8 17 -17z m793
1 c3 -8 2 -12 -4 -9 -6 3 -10 10 -10 16 0 14 7 11 14 -7z m-59 -12 c-3 -3 -11
0 -18 7 -9 10 -8 11 6 5 10 -3 15 -9 12 -12z m575 8 c0 -5 -2 -10 -4 -10 -3 0
-8 5 -11 10 -3 6 -1 10 4 10 6 0 11 -4 11 -10z m495 0 c-3 -5 -12 -10 -18 -10
-7 0 -6 4 3 10 19 12 23 12 15 0z m-272 -7 c-7 -2 -21 -2 -30 0 -10 3 -4 5 12
5 17 0 24 -2 18 -5z m340 0 c-7 -2 -21 -2 -30 0 -10 3 -4 5 12 5 17 0 24 -2
18 -5z m6182 -733 c4 -13 15 -20 31 -20 27 0 31 -12 9 -30 -8 -7 -15 -23 -15
-37 0 -21 -3 -22 -20 -13 -14 7 -26 8 -39 0 -27 -14 -29 -13 -24 13 3 14 -2
29 -11 36 -23 19 -20 31 8 31 16 0 27 7 31 20 3 11 10 20 15 20 5 0 12 -9 15
-20z m-7165 0 c0 -5 -4 -10 -10 -10 -5 0 -10 5 -10 10 0 6 5 10 10 10 6 0 10
-4 10 -10z m120 -63 l0 -73 -36 1 c-20 1 -40 8 -45 16 -24 38 5 95 42 84 15
-5 19 -1 19 19 0 14 5 26 10 26 6 0 10 -31 10 -73z m250 -2 c0 -43 -4 -75 -10
-75 -5 0 -10 5 -10 10 0 7 -6 7 -19 0 -39 -20 -70 15 -55 63 9 29 23 38 51 30
20 -4 23 -1 23 21 0 14 5 26 10 26 6 0 10 -32 10 -75z m-1196 49 c9 -8 16 -20
16 -25 0 -14 -39 -49 -55 -49 -9 0 -15 -9 -15 -25 0 -14 -4 -25 -10 -25 -6 0
-10 30 -10 70 l0 70 29 0 c16 0 37 -7 45 -16z m66 -44 l0 -60 30 0 c17 0 30
-4 30 -10 0 -5 -18 -10 -40 -10 l-40 0 0 70 c0 40 4 70 10 70 6 0 10 -27 10
-60z m240 50 c11 -7 7 -10 -17 -10 -42 0 -44 -24 -3 -45 55 -28 23 -87 -38
-69 -27 7 -27 8 7 13 45 8 50 26 12 46 -32 16 -40 42 -19 63 14 14 38 15 58 2z
m7900 -11 l-25 -10 24 -18 c29 -22 22 -51 -11 -50 -23 0 -23 0 2 10 l25 10
-24 18 c-29 22 -22 51 11 50 23 0 23 0 -2 -10z m-6762 -22 c2 -12 -4 -20 -17
-24 -11 -3 -22 -15 -24 -27 -2 -11 -5 1 -6 27 -1 45 1 48 21 45 13 -2 24 -11
26 -21z m6824 5 c-16 -5 -15 -34 1 -51 10 -11 9 -13 -3 -9 -14 4 -32 62 -23
72 3 3 12 2 21 -2 10 -4 12 -7 4 -10z m-7850 -9 c29 -26 22 -43 -18 -43 -43 0
-42 -22 2 -31 24 -5 26 -7 11 -14 -10 -4 -29 -3 -43 3 -43 20 -28 100 20 102
5 0 18 -7 28 -17z m190 -25 c2 -35 7 -44 25 -46 18 -3 23 3 28 35 10 61 13 62
14 3 l1 -56 -36 1 c-42 2 -54 16 -54 68 0 51 18 47 22 -5z m128 31 c0 -8 5 -7
15 1 9 7 18 10 22 6 4 -3 -3 -13 -15 -22 -15 -11 -22 -25 -22 -50 0 -19 -4
-34 -10 -34 -5 0 -10 25 -10 55 0 30 5 55 10 55 6 0 10 -5 10 -11z m90 -44 c0
-30 -4 -55 -10 -55 -5 0 -10 25 -10 55 0 30 5 55 10 55 6 0 10 -25 10 -55z
m224 49 c11 -4 16 -19 16 -53 l0 -46 -35 0 c-39 0 -61 21 -43 42 6 7 21 13 34
13 15 0 24 6 24 15 0 9 -10 15 -26 15 -14 0 -23 4 -19 10 7 11 26 13 49 4z
m658 -12 c-15 -5 -16 -48 -2 -55 6 -3 5 -4 -2 -3 -7 1 -14 19 -16 39 -3 32 -1
36 14 30 11 -4 13 -8 6 -11z m6628 -18 c0 -31 -3 -35 -22 -32 -29 4 -35 28 -9
35 26 7 27 20 4 26 -14 4 -12 5 5 6 19 1 22 -4 22 -35z m51 22 c-5 -6 -11 -22
-14 -36 -3 -19 -5 -17 -6 11 -1 25 3 36 14 36 9 0 11 -4 6 -11z m-6736 -6 c3
-6 -1 -7 -9 -4 -18 7 -21 14 -7 14 6 0 13 -4 16 -10z m120 0 c3 -6 -1 -7 -9
-4 -18 7 -21 14 -7 14 6 0 13 -4 16 -10z m6942 -7 c-16 -16 -18 -16 -34 0 -16
16 -15 17 17 17 32 0 33 -1 17 -17z m-6937 -18 c0 -1 -11 -5 -25 -7 -16 -3
-25 -1 -25 7 0 8 9 10 25 7 14 -2 25 -6 25 -7z m-199 -28 c-10 -9 -11 -8 -5 6
3 10 9 15 12 12 3 -3 0 -11 -7 -18z"/>
<path d="M17880 9360 c0 -5 5 -10 11 -10 5 0 7 5 4 10 -3 6 -8 10 -11 10 -2 0
-4 -4 -4 -10z"/>
<path d="M17880 9259 c0 -5 5 -7 10 -4 6 3 10 8 10 11 0 2 -4 4 -10 4 -5 0
-10 -5 -10 -11z"/>
<path d="M17970 9259 c0 -5 5 -7 10 -4 6 3 10 8 10 11 0 2 -4 4 -10 4 -5 0
-10 -5 -10 -11z"/>
<path d="M1390 9320 c0 -5 7 -10 16 -10 8 0 12 5 9 10 -3 6 -10 10 -16 10 -5
0 -9 -4 -9 -10z"/>
<path d="M1784 9317 c-3 -9 -3 -25 0 -34 6 -15 8 -15 24 0 15 16 15 18 0 34
-16 15 -18 15 -24 0z"/>
<path d="M1367 8893 c-4 -3 -7 -21 -7 -40 0 -33 0 -33 50 -33 l50 0 0 40 0 40
-43 0 c-24 0 -47 -3 -50 -7z"/>
<path d="M3030 8880 c0 -13 7 -20 20 -20 13 0 20 7 20 20 0 13 -7 20 -20 20
-13 0 -20 -7 -20 -20z"/>
<path d="M3080 8881 c0 -18 6 -21 46 -21 38 0 45 3 42 18 -2 12 -15 18 -46 20
-37 3 -42 1 -42 -17z"/>
<path d="M3080 8805 l0 -45 45 0 45 0 0 45 0 45 -45 0 -45 0 0 -45z"/>
<path d="M250 8840 l0 -50 70 0 70 0 0 50 c0 46 -2 50 -23 50 -13 0 -28 -5
-35 -12 -9 -9 -15 -9 -24 0 -7 7 -22 12 -35 12 -21 0 -23 -4 -23 -50z"/>
<path d="M4065 8876 c-19 -14 -19 -15 8 -27 22 -10 32 -10 53 1 24 13 24 15 8
27 -23 17 -45 16 -69 -1z"/>
<path d="M4040 8826 c0 -42 50 -65 96 -44 17 8 24 19 24 40 0 31 -15 36 -41
12 -16 -15 -20 -15 -41 0 -31 22 -38 20 -38 -8z"/>
<path d="M5186 8865 c-3 -8 -13 -15 -23 -15 -13 0 -14 -3 -5 -12 7 -7 12 -19
12 -28 0 -12 9 -17 30 -17 21 0 30 5 30 17 0 9 5 21 12 28 9 9 8 12 -5 12 -10
0 -20 7 -23 15 -4 8 -10 15 -14 15 -4 0 -10 -7 -14 -15z"/>
<path d="M510 8855 c-26 -31 13 -82 44 -56 19 16 21 42 4 59 -16 16 -33 15
-48 -3z"/>
<path d="M1600 8850 c0 -13 5 -20 13 -17 6 2 12 10 12 17 0 7 -6 15 -12 18 -8
2 -13 -5 -13 -18z"/>
<path d="M2660 8855 c0 -9 5 -15 11 -13 6 2 11 8 11 13 0 5 -5 11 -11 13 -6 2
-11 -4 -11 -13z"/>
<path d="M3280 8851 c0 -15 6 -21 21 -21 14 0 19 5 17 17 -5 26 -38 29 -38 4z"/>
<path d="M4290 8850 c0 -11 7 -20 15 -20 8 0 15 9 15 20 0 11 -7 20 -15 20 -8
0 -15 -9 -15 -20z"/>
<path d="M685 8840 c-3 -5 3 -10 15 -10 12 0 18 5 15 10 -3 6 -10 10 -15 10
-5 0 -12 -4 -15 -10z"/>
<path d="M930 8840 c0 -5 7 -10 15 -10 8 0 15 5 15 10 0 6 -7 10 -15 10 -8 0
-15 -4 -15 -10z"/>
<path d="M1690 8840 c0 -5 7 -10 16 -10 8 0 12 5 9 10 -3 6 -10 10 -16 10 -5
0 -9 -4 -9 -10z"/>
<path d="M1860 8835 c-10 -12 -10 -18 0 -30 15 -18 30 -11 30 15 0 26 -15 33
-30 15z"/>
<path d="M2114 8836 c-8 -21 3 -49 16 -41 5 3 10 15 10 25 0 25 -18 36 -26 16z"/>
<path d="M2300 8840 c0 -5 7 -10 16 -10 8 0 12 5 9 10 -3 6 -10 10 -16 10 -5
0 -9 -4 -9 -10z"/>
<path d="M3424 8836 c-8 -22 3 -49 19 -43 6 2 12 14 12 27 0 27 -22 39 -31 16z"/>
<path d="M3540 8840 c0 -5 9 -10 21 -10 11 0 17 5 14 10 -3 6 -13 10 -21 10
-8 0 -14 -4 -14 -10z"/>
<path d="M4365 8811 c-3 -5 -1 -12 5 -16 12 -7 30 2 30 16 0 12 -27 12 -35 0z"/>
<path d="M4667 8835 c-9 -22 3 -46 22 -43 10 2 16 13 16 28 0 28 -29 40 -38
15z"/>
<path d="M4755 8840 c-3 -5 3 -10 15 -10 12 0 18 5 15 10 -3 6 -10 10 -15 10
-5 0 -12 -4 -15 -10z"/>
<path d="M5505 8811 c-3 -5 -1 -12 5 -16 12 -7 30 2 30 16 0 12 -27 12 -35 0z"/>
<path d="M14980 8205 c0 -34 1 -35 40 -35 39 0 40 1 40 35 0 34 -1 35 -40 35
-39 0 -40 -1 -40 -35z"/>
<path d="M12134 8195 c-7 -18 2 -45 15 -45 13 0 22 27 15 45 -4 8 -10 15 -15
15 -5 0 -12 -7 -15 -15z"/>
<path d="M12215 8200 c-3 -5 3 -10 15 -10 12 0 18 5 15 10 -3 6 -10 10 -15 10
-5 0 -12 -4 -15 -10z"/>
<path d="M12907 8173 c-12 -11 -8 -23 8 -23 8 0 15 7 15 15 0 16 -12 20 -23 8z"/>
<path d="M13074 8196 c-8 -22 3 -49 19 -43 6 2 12 14 12 27 0 27 -22 39 -31
16z"/>
<path d="M13250 8164 c0 -9 5 -14 12 -12 18 6 21 28 4 28 -9 0 -16 -7 -16 -16z"/>
<path d="M13334 8195 c-7 -18 2 -45 15 -45 13 0 22 27 15 45 -4 8 -10 15 -15
15 -5 0 -12 -7 -15 -15z"/>
<path d="M13415 8200 c-3 -5 3 -10 15 -10 12 0 18 5 15 10 -3 6 -10 10 -15 10
-5 0 -12 -4 -15 -10z"/>
<path d="M14114 8196 c-8 -22 3 -49 19 -43 6 2 12 14 12 27 0 27 -22 39 -31
16z"/>
<path d="M15278 8193 c7 -3 16 -2 19 1 4 3 -2 6 -13 5 -11 0 -14 -3 -6 -6z"/>
<path d="M6904 7476 c-10 -26 0 -51 21 -51 16 0 20 7 20 30 0 33 -30 49 -41
21z"/>
<path d="M7027 7484 c-10 -11 3 -24 24 -24 10 0 19 7 19 15 0 15 -31 21 -43 9z"/>
<path d="M7590 7455 c0 -32 3 -36 23 -33 17 2 22 10 22 33 0 23 -5 31 -22 33
-20 3 -23 -1 -23 -33z"/>
<path d="M7877 7484 c-4 -4 -7 -20 -7 -36 0 -25 4 -29 23 -26 17 2 22 10 22
33 0 29 -22 45 -38 29z"/>
<path d="M14706 7455 c-3 -8 -13 -15 -23 -15 -13 0 -14 -3 -5 -12 7 -7 12 -19
12 -28 0 -12 9 -17 30 -17 21 0 30 5 30 17 0 9 5 21 12 28 9 9 8 12 -5 12 -10
0 -20 7 -23 15 -4 8 -10 15 -14 15 -4 0 -10 -7 -14 -15z"/>
<path d="M15045 7390 c-3 -5 1 -10 9 -10 9 0 16 5 16 10 0 6 -4 10 -9 10 -6 0
-13 -4 -16 -10z"/>
<path d="M14706 6145 c-3 -8 -13 -15 -23 -15 -13 0 -14 -3 -5 -12 7 -7 12 -19
12 -28 0 -12 9 -17 30 -17 21 0 30 5 30 17 0 9 5 21 12 28 9 9 8 12 -5 12 -10
0 -20 7 -23 15 -4 8 -10 15 -14 15 -4 0 -10 -7 -14 -15z"/>
<path d="M6690 6115 c0 -18 5 -25 19 -25 20 0 31 17 24 38 -3 6 -13 12 -24 12
-14 0 -19 -7 -19 -25z"/>
<path d="M6897 6104 c-4 -4 -7 -20 -7 -36 0 -25 4 -29 23 -26 17 2 22 10 22
33 0 29 -22 45 -38 29z"/>
<path d="M7117 6104 c-10 -11 3 -24 24 -24 10 0 19 7 19 15 0 15 -31 21 -43 9z"/>
<path d="M7414 6096 c-10 -26 1 -51 22 -54 24 -3 38 20 29 49 -7 22 -43 25
-51 5z"/>
<path d="M15045 6080 c-3 -5 1 -10 9 -10 9 0 16 5 16 10 0 6 -4 10 -9 10 -6 0
-13 -4 -16 -10z"/>
<path d="M3810 4921 c-13 -25 -13 -33 3 -55 8 -11 19 -15 30 -10 22 8 24 69 1
78 -22 8 -22 8 -34 -13z"/>
<path d="M3500 4950 c0 -27 3 -31 23 -28 22 3 40 48 19 48 -6 0 -17 3 -26 6
-13 5 -16 -1 -16 -26z"/>
<path d="M14706 4945 c-3 -8 -13 -15 -23 -15 -13 0 -14 -3 -5 -12 7 -7 12 -19
12 -28 0 -12 9 -17 30 -17 21 0 30 5 30 17 0 9 5 21 12 28 9 9 8 12 -5 12 -10
0 -20 7 -23 15 -4 8 -10 15 -14 15 -4 0 -10 -7 -14 -15z"/>
<path d="M3957 4934 c-14 -14 -6 -24 19 -24 16 0 24 5 22 13 -5 14 -31 21 -41
11z"/>
<path d="M4526 4875 c-3 -9 1 -18 9 -21 16 -6 45 12 45 27 0 16 -48 10 -54 -6z"/>
<path d="M5100 4925 c-11 -13 -8 -15 20 -15 21 0 30 4 28 13 -7 18 -33 20 -48
2z"/>
<path d="M6690 4900 l-21 -30 25 0 c22 0 26 4 26 30 0 17 -2 30 -4 30 -3 0
-14 -13 -26 -30z"/>
<path d="M7231 4926 c-31 -37 9 -103 47 -80 36 23 23 94 -18 94 -10 0 -23 -6
-29 -14z"/>
<path d="M15045 4880 c-3 -5 1 -10 9 -10 9 0 16 5 16 10 0 6 -4 10 -9 10 -6 0
-13 -4 -16 -10z"/>
<path d="M3810 4665 c-11 -13 -8 -15 20 -15 21 0 30 4 28 13 -7 18 -33 20 -48
2z"/>
<path d="M4664 4216 c-8 -22 3 -49 19 -43 6 2 12 14 12 27 0 27 -22 39 -31 16z"/>
<path d="M4884 4216 c-8 -22 3 -49 19 -43 6 2 12 14 12 27 0 27 -22 39 -31 16z"/>
<path d="M5024 4216 c-8 -22 3 -49 19 -43 6 2 12 14 12 27 0 27 -22 39 -31 16z"/>
<path d="M5235 4220 c-3 -5 3 -10 15 -10 12 0 18 5 15 10 -3 6 -10 10 -15 10
-5 0 -12 -4 -15 -10z"/>
<path d="M3491 3806 c-9 -10 -8 -16 3 -25 10 -9 16 -8 25 3 9 10 8 16 -3 25
-10 9 -16 8 -25 -3z"/>
<path d="M4500 3790 c-9 -16 -8 -20 5 -20 8 0 15 9 15 20 0 11 -2 20 -5 20 -2
0 -9 -9 -15 -20z"/>
<path d="M14706 3745 c-3 -8 -13 -15 -23 -15 -13 0 -14 -3 -5 -12 7 -7 12 -19
12 -28 0 -12 9 -17 30 -17 21 0 30 5 30 17 0 9 5 21 12 28 9 9 8 12 -5 12 -10
0 -20 7 -23 15 -4 8 -10 15 -14 15 -4 0 -10 -7 -14 -15z"/>
<path d="M6684 3696 c-10 -26 0 -51 21 -51 16 0 20 7 20 30 0 33 -30 49 -41
21z"/>
<path d="M6806 3692 c-10 -30 4 -53 28 -50 31 4 30 62 -1 66 -14 2 -23 -3 -27
-16z"/>
<path d="M7200 3695 c0 -11 7 -15 23 -13 12 2 22 8 22 13 0 6 -10 11 -22 13
-16 2 -23 -2 -23 -13z"/>
<path d="M15045 3680 c-3 -5 1 -10 9 -10 9 0 16 5 16 10 0 6 -4 10 -9 10 -6 0
-13 -4 -16 -10z"/>
<path d="M3487 3080 c-3 -13 0 -20 9 -20 15 0 19 26 5 34 -5 3 -11 -3 -14 -14z"/>
<path d="M3815 3080 c-9 -15 -1 -23 21 -18 15 3 16 4 1 16 -11 9 -17 10 -22 2z"/>
<path d="M3996 3083 c-11 -11 -6 -23 9 -23 8 0 15 4 15 9 0 13 -16 22 -24 14z"/>
<path d="M4240 3075 c-10 -13 -9 -15 9 -15 11 0 21 4 21 9 0 18 -18 21 -30 6z"/>
<path d="M3664 2801 c-179 -81 -222 -316 -82 -447 41 -39 100 -70 153 -78 l40
-7 0 49 c0 33 -4 48 -11 45 -7 -2 -15 1 -19 6 -3 6 -10 9 -15 6 -11 -7 -70 15
-70 26 0 5 7 21 16 34 20 31 11 59 -16 52 -12 -3 -20 -1 -18 6 1 7 -4 32 -11
55 -11 38 -10 51 5 93 15 40 25 52 62 71 30 16 48 34 58 58 12 27 17 32 24 20
5 -8 10 -27 10 -41 0 -19 9 -29 35 -42 48 -23 66 -56 68 -124 2 -44 -3 -64
-18 -85 -22 -30 -41 -37 -31 -13 3 8 2 15 -3 15 -8 0 -26 -81 -19 -84 2 0 46
0 99 2 l96 3 12 38 c54 183 -73 361 -258 361 -42 0 -81 -7 -107 -19z m17 -454
c-1 -12 -15 -9 -19 4 -3 6 1 10 8 8 6 -3 11 -8 11 -12z"/>
<path d="M3680 2629 c0 -5 5 -7 10 -4 6 3 10 8 10 11 0 2 -4 4 -10 4 -5 0 -10
-5 -10 -11z"/>
<path d="M3845 2630 c3 -5 8 -10 11 -10 2 0 4 5 4 10 0 6 -5 10 -11 10 -5 0
-7 -4 -4 -10z"/>
<path d="M3682 2552 c4 -19 29 -23 35 -6 2 6 -6 14 -17 17 -16 4 -20 1 -18
-11z"/>
<path d="M3830 2557 c-14 -8 -31 -12 -38 -9 -6 2 -12 -1 -12 -7 0 -12 1 -12
37 -16 24 -2 47 17 41 35 -2 6 -12 5 -28 -3z"/>
<path d="M3727 2478 c-2 -13 -8 -31 -12 -40 -4 -11 -3 -18 4 -18 6 0 11 9 11
19 0 11 5 23 10 26 12 8 13 35 1 35 -5 0 -11 -10 -14 -22z"/>
<path d="M3765 2480 c-3 -5 -1 -10 4 -10 14 0 14 -33 1 -46 -7 -7 -6 -11 3
-11 8 0 14 13 15 33 3 33 -11 53 -23 34z"/>
<path d="M3935 2360 c-3 -5 3 -10 14 -10 26 0 27 -12 1 -35 -28 -25 -25 -35
10 -35 17 0 30 5 30 10 0 6 -7 10 -17 10 -15 0 -14 2 2 20 9 10 15 26 12 35
-7 17 -42 20 -52 5z"/>
<path d="M3872 2331 c9 -15 9 -23 -1 -35 -16 -19 -1 -22 17 -4 9 9 12 9 12 0
0 -7 4 -12 8 -12 4 0 8 16 8 35 0 19 -4 35 -8 35 -4 0 -8 -5 -8 -12 0 -9 -3
-9 -12 0 -19 19 -29 14 -16 -7z"/>
<path d="M14706 2545 c-3 -8 -13 -15 -23 -15 -13 0 -14 -3 -5 -12 7 -7 12 -19
12 -28 0 -12 9 -17 30 -17 21 0 30 5 30 17 0 9 5 21 12 28 9 9 8 12 -5 12 -10
0 -20 7 -23 15 -4 8 -10 15 -14 15 -4 0 -10 -7 -14 -15z"/>
<path d="M6877 2504 c-10 -11 3 -24 24 -24 10 0 19 7 19 15 0 15 -31 21 -43 9z"/>
<path d="M7184 2496 c-10 -26 1 -51 22 -54 24 -3 38 20 29 49 -7 22 -43 25
-51 5z"/>
<path d="M7450 2456 c0 -23 17 -28 34 -10 21 21 20 24 -9 24 -15 0 -25 -6 -25
-14z"/>
<path d="M7737 2504 c-14 -14 -7 -25 13 -22 12 2 21 8 21 13 0 12 -24 18 -34
9z"/>
<path d="M8267 2504 c-4 -4 -7 -20 -7 -36 0 -25 4 -29 23 -26 17 2 22 10 22
33 0 29 -22 45 -38 29z"/>
<path d="M15045 2480 c-3 -5 1 -10 9 -10 9 0 16 5 16 10 0 6 -4 10 -9 10 -6 0
-13 -4 -16 -10z"/>
<path d="M3640 1425 c0 -18 5 -25 20 -25 15 0 20 7 20 25 0 18 -5 25 -20 25
-15 0 -20 -7 -20 -25z"/>
<path d="M3940 1425 c0 -20 4 -26 18 -23 9 2 17 12 17 23 0 11 -8 21 -17 23
-14 3 -18 -3 -18 -23z"/>
<path d="M14706 1345 c-3 -8 -13 -15 -23 -15 -13 0 -14 -3 -5 -12 7 -7 12 -19
12 -28 0 -12 9 -17 30 -17 21 0 30 5 30 17 0 9 5 21 12 28 9 9 8 12 -5 12 -10
0 -20 7 -23 15 -4 8 -10 15 -14 15 -4 0 -10 -7 -14 -15z"/>
<path d="M9044 1296 c-10 -26 1 -51 21 -51 15 0 21 8 23 33 3 27 0 32 -18 32
-11 0 -23 -6 -26 -14z"/>
<path d="M7971 1326 c-31 -37 9 -103 47 -80 36 23 23 94 -18 94 -10 0 -23 -6
-29 -14z"/>
<path d="M8232 1323 c2 -10 10 -18 18 -18 8 0 16 8 18 18 2 12 -3 17 -18 17
-15 0 -20 -5 -18 -17z"/>
<path d="M8225 1270 c-4 -7 -3 -16 3 -22 14 -14 47 -6 47 12 0 18 -40 26 -50
10z"/>
<path d="M8454 1275 c-8 -20 4 -35 27 -35 14 0 19 7 19 25 0 18 -5 25 -20 25
-11 0 -23 -7 -26 -15z"/>
<path d="M6767 1304 c-14 -14 -7 -25 13 -22 12 2 21 8 21 13 0 12 -24 18 -34
9z"/>
<path d="M8920 1256 c0 -23 17 -28 34 -10 21 21 20 24 -9 24 -15 0 -25 -6 -25
-14z"/>
<path d="M9287 1304 c-10 -11 3 -24 24 -24 10 0 19 7 19 15 0 15 -31 21 -43 9z"/>
<path d="M9407 1304 c-14 -14 -7 -25 13 -22 12 2 21 8 21 13 0 12 -24 18 -34
9z"/>
<path d="M15045 1280 c-3 -5 1 -10 9 -10 9 0 16 5 16 10 0 6 -4 10 -9 10 -6 0
-13 -4 -16 -10z"/>
<path d="M3516 1155 c-3 -8 -13 -15 -23 -15 -13 0 -14 -3 -5 -12 7 -7 12 -19
12 -28 0 -12 9 -17 30 -17 21 0 30 5 30 17 0 9 5 21 12 28 9 9 8 12 -5 12 -10
0 -20 7 -23 15 -4 8 -10 15 -14 15 -4 0 -10 -7 -14 -15z"/>
<path d="M14706 145 c-3 -8 -13 -15 -23 -15 -13 0 -14 -3 -5 -12 7 -7 12 -19
12 -28 0 -12 9 -17 30 -17 21 0 30 5 30 17 0 9 5 21 12 28 9 9 8 12 -5 12 -10
0 -20 7 -23 15 -4 8 -10 15 -14 15 -4 0 -10 -7 -14 -15z"/>
<path d="M7624 96 c-10 -26 1 -51 22 -54 22 -3 33 18 26 51 -4 21 -40 23 -48
3z"/>
<path d="M7865 91 c-8 -26 4 -51 25 -51 25 0 33 16 26 46 -8 29 -42 33 -51 5z"/>
<path d="M6690 115 c0 -18 5 -25 19 -25 20 0 31 17 24 38 -3 6 -13 12 -24 12
-14 0 -19 -7 -19 -25z"/>
<path d="M8150 115 c0 -8 7 -15 15 -15 8 0 15 7 15 15 0 8 -7 15 -15 15 -8 0
-15 -7 -15 -15z"/>
<path d="M7110 95 c0 -11 7 -15 23 -13 12 2 22 8 22 13 0 6 -10 11 -22 13 -16
2 -23 -2 -23 -13z"/>
<path d="M7747 63 c-11 -10 13 -32 29 -26 20 8 17 33 -4 33 -10 0 -22 -3 -25
-7z"/>
<path d="M15045 80 c-3 -5 1 -10 9 -10 9 0 16 5 16 10 0 6 -4 10 -9 10 -6 0
-13 -4 -16 -10z"/>
<path d="M7226 92 c-10 -30 4 -53 28 -50 31 4 30 62 -1 66 -14 2 -23 -3 -27
-16z"/>
</g>
</svg>
